<svg width="185" height="185" fill="none" xmlns="http://www.w3.org/2000/svg"><path d="M92.33 183.811c50.49 0 91.42-40.93 91.42-91.42S142.82.97 92.33.97.91 41.9.91 92.39s40.93 91.42 91.42 91.42z" stroke="#939DA9" stroke-miterlimit="10" stroke-linecap="round" stroke-linejoin="round"/><path d="M92.33 166.084c40.7 0 73.694-32.994 73.694-73.694S133.03 18.696 92.33 18.696 18.636 51.69 18.636 92.39s32.994 73.694 73.694 73.694z" stroke="#939DA9" stroke-miterlimit="10" stroke-linecap="round" stroke-linejoin="round"/><path d="M92.33 151.958c32.898 0 59.567-26.669 59.567-59.567 0-32.898-26.669-59.567-59.567-59.567-32.898 0-59.567 26.669-59.567 59.567 0 32.898 26.669 59.567 59.567 59.567z" stroke="#939DA9" stroke-miterlimit="10" stroke-linecap="round" stroke-linejoin="round"/><path d="M92.33 135.446c23.779 0 43.055-19.276 43.055-43.055S116.109 49.335 92.33 49.335 49.275 68.612 49.275 92.391c0 23.779 19.276 43.055 43.055 43.055z" stroke="#939DA9" stroke-miterlimit="10" stroke-linecap="round" stroke-linejoin="round"/><path d="M92.33 122.885c16.842 0 30.494-13.653 30.494-30.494 0-16.842-13.652-30.495-30.494-30.495S61.836 75.55 61.836 92.392c0 16.841 13.652 30.494 30.494 30.494z" stroke="#939DA9" stroke-miterlimit="10" stroke-linecap="round" stroke-linejoin="round"/><path d="M92.33 104.22c6.533 0 11.829-5.296 11.829-11.83 0-6.532-5.296-11.829-11.829-11.829s-11.829 5.296-11.829 11.83c0 6.532 5.296 11.829 11.829 11.829zm0-30.087a3.69 3.69 0 100-7.38 3.69 3.69 0 000 7.38zm0 43.896a3.69 3.69 0 100-7.38 3.69 3.69 0 000 7.38zm21.949-21.949a3.69 3.69 0 100-7.379 3.69 3.69 0 000 7.38zm-43.899 0a3.69 3.69 0 100-7.379 3.69 3.69 0 000 7.38zm37.471-15.518a3.69 3.69 0 100-7.38 3.69 3.69 0 000 7.38zm-31.042 31.039a3.69 3.69 0 100-7.38 3.69 3.69 0 000 7.38zm31.042 0a3.69 3.69 0 100-7.38 3.69 3.69 0 000 7.38zM76.809 80.562a3.69 3.69 0 100-7.38 3.69 3.69 0 000 7.38zM95.311 1.019l6.342 9.533s8.158.776 12.627 2.59V7.079s-.621-2.97-2.739-4.088" stroke="#939DA9" stroke-miterlimit="10" stroke-linecap="round" stroke-linejoin="round"/><path d="M102.301 1.508l1.858 2.31-2.506 6.733M89.349 183.763l-6.342-9.533s-8.158-.776-12.627-2.589v6.062s.62 2.97 2.74 4.088" stroke="#939DA9" stroke-miterlimit="10" stroke-linecap="round" stroke-linejoin="round"/><path d="M82.359 183.272l-1.858-2.31 2.506-6.732m100.694-78.859l-9.533 6.342s-.776 8.158-2.589 12.626h6.062s2.97-.62 4.088-2.738" stroke="#939DA9" stroke-miterlimit="10" stroke-linecap="round" stroke-linejoin="round"/><path d="M183.212 102.361l-2.31 1.86-6.734-2.508M.959 89.412l9.533-6.343s.776-8.157 2.59-12.626H7.018s-2.97.62-4.088 2.74" stroke="#939DA9" stroke-miterlimit="10" stroke-linecap="round" stroke-linejoin="round"/><path d="M1.448 82.421l2.31-1.86 6.734 2.506M159.048 29.89l-2.256 11.225s5.219 6.319 7.095 10.76l4.286-4.287s1.662-2.539.954-4.827" stroke="#939DA9" stroke-miterlimit="10" stroke-linecap="round" stroke-linejoin="round"/><path d="M163.644 35.178l-.319 2.949-6.534 2.99M25.612 154.895l2.256-11.225s-5.219-6.319-7.095-10.759l-4.287 4.286s-1.661 2.538-.953 4.827" stroke="#939DA9" stroke-miterlimit="10" stroke-linecap="round" stroke-linejoin="round"/><path d="M21.015 149.604l.32-2.946 6.533-2.991m126.963 15.442l-11.225-2.256s-6.319 5.218-10.759 7.095l4.286 4.286s2.539 1.662 4.827.953" stroke="#939DA9" stroke-miterlimit="10" stroke-linecap="round" stroke-linejoin="round"/><path d="M149.542 163.706l-2.948-.32-2.988-6.533M29.828 25.675l11.225 2.256s6.32-5.218 10.76-7.095l-4.287-4.286s-2.538-1.662-4.827-.953" stroke="#939DA9" stroke-miterlimit="10" stroke-linecap="round" stroke-linejoin="round"/><path d="M35.117 21.08l2.948.318 2.989 6.534M118.843 4.9l3.662 10.85s7.68 2.86 11.526 5.767c1.037-3.88 1.569-5.856 1.569-5.856s.17-3.03-1.588-4.657" stroke="#939DA9" stroke-miterlimit="10" stroke-linecap="round" stroke-linejoin="round"/><path d="M125.468 7.182l1.198 2.71-4.163 5.858M65.817 179.883l-3.662-10.85s-7.68-2.86-11.526-5.766a5269.409 5269.409 0 01-1.569 5.855s-.17 3.03 1.587 4.657" stroke="#939DA9" stroke-miterlimit="10" stroke-linecap="round" stroke-linejoin="round"/><path d="M59.192 177.601l-1.198-2.71 4.163-5.858m117.663-50.13l-10.85 3.662s-2.86 7.68-5.766 11.526a4319.55 4319.55 0 015.855 1.569s3.03.17 4.657-1.588" stroke="#939DA9" stroke-miterlimit="10" stroke-linecap="round" stroke-linejoin="round"/><path d="M177.541 125.53l-2.713 1.198-5.855-4.163M4.84 65.88l10.85-3.662s2.86-7.68 5.766-11.526c-3.878-1.038-5.855-1.569-5.855-1.569s-3.03-.168-4.657 1.587" stroke="#939DA9" stroke-miterlimit="10" stroke-linecap="round" stroke-linejoin="round"/><path d="M7.119 59.253l2.713-1.198 5.855 4.163m157.255-12.945l-5.084 10.26s3.408 7.454 4.072 12.227l5.249-3.032s2.261-2.023 2.17-4.415" stroke="#939DA9" stroke-miterlimit="10" stroke-linecap="round" stroke-linejoin="round"/><path d="M176.014 55.57l-1.07 2.767-7.083 1.196M11.718 135.511l5.083-10.26s-3.407-7.452-4.072-12.228l-5.249 3.032s-2.26 2.024-2.17 4.415" stroke="#939DA9" stroke-miterlimit="10" stroke-linecap="round" stroke-linejoin="round"/><path d="M8.646 129.213l1.07-2.766 7.083-1.196m118.649 47.754l-10.26-5.083s-7.452 3.408-12.228 4.072l3.032 5.249s2.024 2.261 4.415 2.17" stroke="#939DA9" stroke-miterlimit="10" stroke-linecap="round" stroke-linejoin="round"/><path d="M129.15 176.078l-2.764-1.073-1.198-7.083M49.212 11.779l10.26 5.083s7.454-3.408 12.228-4.072l-3.033-5.249s-2.023-2.26-4.414-2.17" stroke="#939DA9" stroke-miterlimit="10" stroke-linecap="round" stroke-linejoin="round"/><path d="M55.51 8.707l2.764 1.07 1.198 7.086m80.771-2.33l.778 11.424s6.699 4.722 9.678 8.512l3.007-5.263s.934-2.888-.35-4.906" stroke="#939DA9" stroke-miterlimit="10" stroke-linecap="round" stroke-linejoin="round"/><path d="M146.07 18.426l.468 2.928-5.517 4.603M44.417 170.25l-.778-11.423s-6.7-4.723-9.678-8.513l-3.007 5.264s-.934 2.887.35 4.906" stroke="#939DA9" stroke-miterlimit="10" stroke-linecap="round" stroke-linejoin="round"/><path d="M38.59 166.358l-.468-2.928 5.517-4.603m126.55-18.521l-11.423.778s-4.722 6.699-8.512 9.678l5.263 3.007s2.888.934 4.906-.35" stroke="#939DA9" stroke-miterlimit="10" stroke-linecap="round" stroke-linejoin="round"/><path d="M166.297 146.131l-2.93.468-4.603-5.515M14.47 44.478l11.424-.779s4.722-6.698 8.512-9.677l-5.263-3.007s-2.888-.935-4.906.35" stroke="#939DA9" stroke-miterlimit="10" stroke-linecap="round" stroke-linejoin="round"/><path d="M18.365 38.65l2.928-.466 4.603 5.515m155.37 27.518l-7.529 8.629s1.399 8.074.826 12.861l5.848-1.594s2.701-1.38 3.223-3.718" stroke="#939DA9" stroke-miterlimit="10" stroke-linecap="round" stroke-linejoin="round"/><path d="M182.631 78.09l-1.738 2.401-7.156-.646M3.397 113.566l7.528-8.629s-1.398-8.074-.825-12.861L4.252 93.67s-2.701 1.38-3.224 3.718" stroke="#939DA9" stroke-miterlimit="10" stroke-linecap="round" stroke-linejoin="round"/><path d="M2.028 106.693l1.74-2.401 7.155.646m102.58 76.388l-8.629-7.529s-8.074 1.399-12.861.825a9213.28 9213.28 0 001.596 5.849s1.38 2.701 3.718 3.223" stroke="#939DA9" stroke-miterlimit="10" stroke-linecap="round" stroke-linejoin="round"/><path d="M106.632 182.694l-2.401-1.741.646-7.156M71.156 3.457l8.63 7.529s8.073-1.399 12.86-.825l-1.593-5.848s-1.38-2.702-3.718-3.224" stroke="#939DA9" stroke-miterlimit="10" stroke-linecap="round" stroke-linejoin="round"/><path d="M78.028 2.09l2.4 1.74-.645 7.156" stroke="#939DA9" stroke-miterlimit="10" stroke-linecap="round" stroke-linejoin="round"/></svg>