<svg width="185" height="185" fill="none" xmlns="http://www.w3.org/2000/svg"><path d="M92.165 183.811c50.49 0 91.42-40.93 91.42-91.42S142.655.97 92.165.97.745 41.9.745 92.39s40.93 91.42 91.42 91.42z" stroke="#939DA9" stroke-miterlimit="10" stroke-linecap="round" stroke-linejoin="round"/><path d="M92.165 166.084c40.7 0 73.694-32.994 73.694-73.694s-32.994-73.694-73.694-73.694S18.471 51.69 18.471 92.39s32.994 73.694 73.694 73.694z" stroke="#939DA9" stroke-miterlimit="10" stroke-linecap="round" stroke-linejoin="round"/><path d="M92.165 151.958c32.898 0 59.567-26.669 59.567-59.567 0-32.898-26.669-59.567-59.567-59.567-32.898 0-59.567 26.669-59.567 59.567 0 32.898 26.669 59.567 59.567 59.567z" stroke="#939DA9" stroke-miterlimit="10" stroke-linecap="round" stroke-linejoin="round"/><path d="M92.165 135.446c23.779 0 43.055-19.276 43.055-43.055s-19.276-43.056-43.055-43.056S49.11 68.612 49.11 92.391c0 23.779 19.276 43.055 43.055 43.055z" stroke="#939DA9" stroke-miterlimit="10" stroke-linecap="round" stroke-linejoin="round"/><path d="M92.165 122.885c16.841 0 30.494-13.653 30.494-30.494 0-16.842-13.653-30.495-30.494-30.495-16.842 0-30.495 13.653-30.495 30.495 0 16.841 13.653 30.494 30.495 30.494z" stroke="#939DA9" stroke-miterlimit="10" stroke-linecap="round" stroke-linejoin="round"/><path d="M92.165 104.22c6.533 0 11.829-5.296 11.829-11.83 0-6.532-5.296-11.829-11.83-11.829-6.532 0-11.828 5.296-11.828 11.83 0 6.532 5.296 11.829 11.829 11.829zm0-30.087a3.69 3.69 0 100-7.38 3.69 3.69 0 000 7.38zm0 43.896a3.69 3.69 0 100-7.38 3.69 3.69 0 000 7.38zm21.947-21.949a3.69 3.69 0 100-7.379 3.69 3.69 0 000 7.38zm-43.897 0a3.69 3.69 0 100-7.379 3.69 3.69 0 000 7.38zm37.469-15.518a3.69 3.69 0 10-.001-7.38 3.69 3.69 0 00.001 7.38zm-31.04 31.039a3.69 3.69 0 100-7.38 3.69 3.69 0 000 7.38zm31.04 0a3.69 3.69 0 10-.001-7.38 3.69 3.69 0 00.001 7.38zm-31.04-31.039a3.69 3.69 0 100-7.38 3.69 3.69 0 000 7.38zM95.147 1.019l6.342 9.533s8.158.776 12.626 2.59V7.079s-.62-2.97-2.739-4.088" stroke="#939DA9" stroke-miterlimit="10" stroke-linecap="round" stroke-linejoin="round"/><path d="M102.134 1.508l1.86 2.31-2.505 6.734M89.184 183.764l-6.342-9.533s-8.158-.776-12.626-2.59v6.063s.62 2.969 2.738 4.088" stroke="#939DA9" stroke-miterlimit="10" stroke-linecap="round" stroke-linejoin="round"/><path d="M82.194 183.272l-1.86-2.31 2.508-6.731m100.694-78.859l-9.533 6.342s-.776 8.158-2.589 12.626h6.062s2.97-.62 4.088-2.739" stroke="#939DA9" stroke-miterlimit="10" stroke-linecap="round" stroke-linejoin="round"/><path d="M183.047 102.362l-2.31 1.86-6.734-2.508M.794 89.412l9.533-6.342s.776-8.158 2.59-12.626H6.853s-2.97.62-4.088 2.739" stroke="#939DA9" stroke-miterlimit="10" stroke-linecap="round" stroke-linejoin="round"/><path d="M1.283 82.421l2.31-1.86 6.734 2.506M158.881 29.89l-2.257 11.225s5.219 6.32 7.095 10.76l4.287-4.287s1.662-2.538.953-4.827" stroke="#939DA9" stroke-miterlimit="10" stroke-linecap="round" stroke-linejoin="round"/><path d="M163.477 35.179l-.319 2.948-6.534 2.99M25.447 154.895l2.256-11.225s-5.218-6.319-7.095-10.759l-4.286 4.286s-1.662 2.538-.954 4.827" stroke="#939DA9" stroke-miterlimit="10" stroke-linecap="round" stroke-linejoin="round"/><path d="M20.85 149.604l.32-2.946 6.533-2.991m126.964 15.442l-11.226-2.256s-6.319 5.219-10.759 7.095l4.287 4.287s2.538 1.661 4.827.953" stroke="#939DA9" stroke-miterlimit="10" stroke-linecap="round" stroke-linejoin="round"/><path d="M149.378 163.706l-2.949-.319-2.988-6.533M29.664 25.675l11.225 2.257s6.319-5.219 10.76-7.095l-4.287-4.287s-2.539-1.662-4.828-.953" stroke="#939DA9" stroke-miterlimit="10" stroke-linecap="round" stroke-linejoin="round"/><path d="M34.952 21.08l2.946.319 2.99 6.533M118.676 4.9l3.662 10.85s7.68 2.86 11.526 5.767c1.037-3.88 1.568-5.856 1.568-5.856s.17-3.03-1.587-4.657" stroke="#939DA9" stroke-miterlimit="10" stroke-linecap="round" stroke-linejoin="round"/><path d="M125.302 7.182l1.199 2.71-4.163 5.858M65.651 179.883l-3.661-10.85s-7.68-2.86-11.526-5.766c-1.038 3.878-1.569 5.855-1.569 5.855s-.17 3.03 1.587 4.657" stroke="#939DA9" stroke-miterlimit="10" stroke-linecap="round" stroke-linejoin="round"/><path d="M59.025 177.601l-1.198-2.71 4.163-5.858m117.665-50.13l-10.85 3.662s-2.86 7.68-5.766 11.526a4319.55 4319.55 0 015.855 1.569s3.03.17 4.657-1.588" stroke="#939DA9" stroke-miterlimit="10" stroke-linecap="round" stroke-linejoin="round"/><path d="M177.373 125.53l-2.711 1.198-5.857-4.163M4.672 65.88l10.85-3.662s2.86-7.68 5.766-11.526c-3.878-1.038-5.855-1.569-5.855-1.569s-3.03-.168-4.657 1.587" stroke="#939DA9" stroke-miterlimit="10" stroke-linecap="round" stroke-linejoin="round"/><path d="M6.954 59.253l2.71-1.198 5.858 4.163m157.255-12.945l-5.083 10.26s3.407 7.454 4.072 12.227l5.249-3.032s2.261-2.023 2.17-4.415" stroke="#939DA9" stroke-miterlimit="10" stroke-linecap="round" stroke-linejoin="round"/><path d="M175.849 55.57l-1.07 2.767-7.086 1.196M11.55 135.511l5.084-10.26s-3.408-7.452-4.072-12.228l-5.25 3.032s-2.26 2.024-2.17 4.415" stroke="#939DA9" stroke-miterlimit="10" stroke-linecap="round" stroke-linejoin="round"/><path d="M8.478 129.213l1.072-2.766 7.084-1.196m118.649 47.754l-10.26-5.083s-7.455 3.408-12.228 4.072l3.032 5.249s2.024 2.261 4.415 2.17" stroke="#939DA9" stroke-miterlimit="10" stroke-linecap="round" stroke-linejoin="round"/><path d="M128.985 176.078l-2.764-1.073-1.199-7.083M49.046 11.779l10.26 5.083s7.453-3.408 12.228-4.072l-3.032-5.249s-2.023-2.26-4.415-2.17" stroke="#939DA9" stroke-miterlimit="10" stroke-linecap="round" stroke-linejoin="round"/><path d="M55.344 8.707l2.765 1.07 1.198 7.086m80.771-2.33l.778 11.424s6.699 4.722 9.678 8.512l3.007-5.263s.934-2.888-.35-4.906" stroke="#939DA9" stroke-miterlimit="10" stroke-linecap="round" stroke-linejoin="round"/><path d="M145.905 18.426l.468 2.928-5.517 4.603M44.25 170.25l-.779-11.423s-6.698-4.723-9.677-8.513l-3.007 5.264s-.935 2.887.35 4.906" stroke="#939DA9" stroke-miterlimit="10" stroke-linecap="round" stroke-linejoin="round"/><path d="M38.425 166.358l-.468-2.928 5.514-4.603m126.551-18.521l-11.423.778s-4.723 6.699-8.513 9.678l5.263 3.007s2.888.934 4.907-.35" stroke="#939DA9" stroke-miterlimit="10" stroke-linecap="round" stroke-linejoin="round"/><path d="M166.13 146.131l-2.928.468-4.603-5.515M14.306 44.478l11.423-.779s4.722-6.698 8.512-9.677l-5.263-3.007s-2.888-.935-4.906.35" stroke="#939DA9" stroke-miterlimit="10" stroke-linecap="round" stroke-linejoin="round"/><path d="M18.198 38.65l2.928-.466 4.603 5.515m155.369 27.518l-7.528 8.629s1.398 8.074.825 12.861l5.848-1.594s2.701-1.38 3.223-3.718" stroke="#939DA9" stroke-miterlimit="10" stroke-linecap="round" stroke-linejoin="round"/><path d="M182.466 78.09l-1.738 2.401-7.156-.646M3.23 113.566l7.528-8.629s-1.398-8.074-.825-12.861L4.085 93.67S1.383 95.05.86 97.388" stroke="#939DA9" stroke-miterlimit="10" stroke-linecap="round" stroke-linejoin="round"/><path d="M1.864 106.693l1.738-2.401 7.156.646m102.58 76.388l-8.629-7.529s-8.074 1.399-12.861.825l1.594 5.849s1.38 2.701 3.718 3.223" stroke="#939DA9" stroke-miterlimit="10" stroke-linecap="round" stroke-linejoin="round"/><path d="M106.467 182.694l-2.403-1.741.646-7.156M70.99 3.457l8.628 7.529s8.074-1.399 12.862-.825c-1.056-3.872-1.597-5.848-1.597-5.848s-1.38-2.702-3.718-3.224" stroke="#939DA9" stroke-miterlimit="10" stroke-linecap="round" stroke-linejoin="round"/><path d="M77.863 2.09l2.4 1.74-.645 7.156" stroke="#939DA9" stroke-miterlimit="10" stroke-linecap="round" stroke-linejoin="round"/></svg>