<svg width="1272" height="540" fill="none" xmlns="http://www.w3.org/2000/svg"><g opacity=".5" stroke="#EFF4F5" stroke-miterlimit="10" stroke-linecap="round" stroke-linejoin="round"><path d="M381.834 302.326h822.006v18.647H623.724l-14.505-11.913h-84.428l-10.358 11.913h-18.129l-12.951-12.95h-80.8l-11.913 12.95h-8.806v-18.647zm209.258 0v-64.487h15.02"/><path d="M618.321 302.326V98.765l14.726 3.626v218.582m-26.935-174.037l12.209-6.734m422.369 105.147h159.01m-783.68 62.674v120.945h70.312V311.002"/><path d="M423.4 308.023v115.118h56.718V308.023M423.4 362.928h56.718m0 5.569H423.4m-7.38-45.971h7.38m-7.38-5.438h7.38m56.718 5.438h6.214m-6.214-5.438h6.214m38.459-8.028l6.023-6.734m-47.461 5.697l-6.538-5.697m-74.263 5.697l4.921-5.697m-25.639 0v-5.179h187.243l7.771 5.179m229.199 0v-83.523l3.885-3.107h175.589l8.158 37.293v49.337"/><path d="M824.304 215.696l3.496 38.07v48.56m0-48.56h165.879"/><path d="M825.092 224.278h22.52l-1.552-8.582m181.03 77.501v9.129m-3.89-14.568l3.89-6.022 4.85 2.137v9.323m-4.85-11.461l3.3-10.293 3.04-7.771h2.79l-4.28 10.102v10.1"/><path d="M1035.02 250.267l-3.08 3.499 1.49 9.906h2.79l.84-10.682-2.04-2.723zm-37.068-28.55l3.688-2.914 3.89 17.094h-3.79l-3.788-14.18zm7.578 14.18l3.69 32.05 6.6 27.096"/><path d="M1015.82 299.217l-5.14-1.457-5.15-26.317-3.79-35.546m-10.249 7.089h10.249m4.6 0h9.48m-22.141 7.281l10.231 5.96m4.19 2.047l7.72 3.067m-22.141-5.114l10.231 3.58m.67 2.699l-10.901-1.165m0 4.128h4.273l-4.273 6.75m10.901-6.75l-5.787 5.002 6.737.972"/><path d="M1002.16 271.443l.84 9.323 2.53 6.701 3.25-1.263m-15.101-4.468l9.321-.97m69.28-124.248s.65-1.165 1.42-2.979c2.59.39 3.24-2.755 3.24-2.755l-1.03-4.109 4.4 3.496 10.62 2.721 2.59-2.721s1.94 0 14.24.613 19.95 6.38 19.95 6.38l-1.17 8.547-19.42.648-34.84-9.193-47.13-7.899-2.25-6.053m217.52 49.109c.46 5.374.33 8.929-2.59 13.95m20.81-6.828s.27 4.145-1.58 7.965m10.48-5.846c.59 2.415.3 5.07-1.48 8.046m-460.013 33.408h6.475l3.624-15.409 1.296-9.065h2.718l1.037-2.848"/><path d="M606.112 302.327V112.75L279.535 50.596l-2.016 2.466-9.864-1.793-8.06-10.255v-2.59l3.107-2.848L266.068 19l3.365-10.1 360.246 68.371 7.769-1.035 328.648 62.933s12.43-5.179 17.612-10.878l-2.461-6.021 11.265-16.509-9.517-6.41-.39-4.272-4.272-4.732 2.524-2.26-22.143-18.065 9.517-9.906h4.079l4.144-1.554s27.126 11.264 35.096 34.38l11.65.258 1.17 2.462 4.92 2.33 1.42-1.424 13.99-.907s7.25.648 11.26.907c2.46-3.237 7.91-6.638 13.42-5.762 5.91.94 7.17 8.352 7.17 8.352s2.72-.13 4.01 4.272c1.82 5.569-2.33 20.847-2.33 20.847h4.92c1.3-2.848 4.15-2.848 4.15-2.848l16.18 2.72 26.03 7.899 7.64-.648 12.3 3.366 40.28-6.993 3.62 3.366-10.81 50.048h11.59l30.95 5.762s2.33-3.431 9.06-1.555c5.24 1.459 6.28 6.927 6.28 6.927s10.17 2.525 14.5 3.562c4.34 1.035 3.69 3.415 3.69 3.415s6.09 1.505 8.1 2.021c2 .512 4.4 1.559 3.69 4.955-.72 3.396-4.34 3.335-4.34 3.335l-9-2.2c-1.16 2.813-4.27 2.72-4.27 2.72s-6.21-1.424-14.96-3.855c-1 1.3-2.44 2.401-3.76 3.233-1.85 1.172-4.11 1.48-6.23.904l-2.45-.669c-1.7-.464-3.16-1.496-4.3-2.839-1.53-1.797-4.88-4.317-12-5.384l-15.35-2.219-1.29 10.829"/><path d="M976.457 141.498l21.495 5.179 14.008-11.912-3.18-5.958-10.439-4.921s-8.158 8.806-21.884 17.612zm21.884-17.612c8.649-10.943 16.119-19.294 13.209-30.948m-19.036 12.819l5.827 4.273s-5.375 9.906-14.633 18.257m18.032-27.385l-7.529-5.438 3.741-3.885v-2.331l2.718-3.107-6.991-6.216 5.506-5.893M973.674 63.48l1.487-.713 11.654 8.417v2.461l-6.086-4.016-2.524.261-4.531-6.41zm-9.389 7.704l1.683-1.23 4.792 3.237.583 3.692-7.058-5.7zm11.978 6.216l3.981-3.755 9.098 8.158-3.303 4.014-9.776-8.417z"/><path d="M1078.24 124.276l-52.9-.389-4.08 2.072-9.3-1.035-11.72-3.429m78 10.291l1.68-2.072 3.24-1.424-1.95-1.294-54.38-1.037-3.76 2.913.78 3.951-6.6 5.566-2.98-2.07-11.92 10.359 5.96 1.296 7.25-4.017 8.55-1.034 8.93-1.683 39.24 8.027"/><path d="M1083.81 131.268l-4.67 2.979-.9 2.459h3.36l3.89.681 1.47-3.061-3.15-3.058zm25.65-5.309c1.67 8.806.5 18.635-5.07 24.662m-14.89-28.823c2.33 7.529-.78 17.628-4.01 20.738l8.02 7.64m-18.77-15.85l-1.29 1.66v7.065l4.79 2.331 7.25 3.885 1.47-1.813-5.62-5.049 1.26-2.589-6.43-1.525-1.43-3.965zm-23.76 5.424l7.48 1.553.48 5.375m-31.17-9.065l5.53-.972 5.15.972.79 4.892m0-18.618l5.46-28.229 32.79 10.099s2.27 1.133 3.37-1.034m-41.62 21.474l-.79 11.416m-25.48-24.863l3.69-1.035 3.69-18.582m0 20.654l4.02-18.129m37.92 1.555c1.94-2.04 8.18-4.802 9.44 1.512-4.17-.68-9.44-1.512-9.44-1.512zm118.25 60.212c1.5 0 2.72-1.218 2.72-2.72 0-1.502-1.22-2.72-2.72-2.72a2.715 2.715 0 00-2.72 2.72c0 1.502 1.21 2.72 2.72 2.72zm-66.67 46.542c1.83 0 3.32-1.489 3.32-3.326a3.325 3.325 0 10-3.32 3.326zm-209.977-20.292a3.326 3.326 0 100-6.652 3.326 3.326 0 000 6.652zm272.337-35.767c.7 0 1.26-.566 1.26-1.263a1.26 1.26 0 10-2.52 0c0 .697.56 1.263 1.26 1.263zm-2.5 15.701c.7 0 1.27-.566 1.27-1.264a1.266 1.266 0 00-2.53 0c0 .698.57 1.264 1.26 1.264zm-2.52-7.995c.7 0 1.26-.566 1.26-1.263a1.26 1.26 0 10-2.52 0c0 .697.56 1.263 1.26 1.263zm21.83 49.568h4.78l1.88 7.892-5.6 4.841m-87.89 74.051h28.23l1.81 2.461-1.94 3.336h-28.1v-5.797zm2.97 2.897h4.69m-214.121-2.897h28.229l1.813 2.461-1.942 3.336h-28.1v-5.797zm2.979 2.897h4.68m21.493 13.775h-17.482v6.508h17.482v-6.508zm229.299 0h-17.48v6.508h17.48v-6.508zm-409.648 0h-17.481v6.508h17.481v-6.508zm447.818 12.335l-12.73-12.335m0-10.878h-5.18v15.183h5.18V297.76zm-2.59 7.592v3.287m-126.9-10.879h-5.18v15.183h5.18V297.76zm-2.59 7.592v3.287"/><path d="M1008.1 302.326v5.438h7.72v-97.636h176.63l7.25 34.186v58.012"/><path d="M1015.82 292.225l7.38-4.466h3.89v5.438h4.85v14.567h8.75v-62.415l-7.26-35.221m-11.91 110.845v-5.31h-9.56v5.31m-205.913-32.114h2.459m16.835 0h2.459M386.381 53.516l35.562-1.27L622.686 89.83l2.998 3.748-201.993-37.254-21.139.293m203.56 61.377l12.209-7.314-340.599-65.525-4.272-2.524m334.993 77.501l7.382-4.273v15.02l-7.382 4.144v-14.891zM244.703 47.1l361.409 65.65M238.098 47.1c11.871 0 21.495-10.32 21.495-23.05S249.969 1 238.098 1s-21.495 10.32-21.495 23.05 9.624 23.05 21.495 23.05z"/><path d="M238.098 30.07c3.101 0 5.615-2.695 5.615-6.02 0-3.325-2.514-6.02-5.615-6.02-3.101 0-5.615 2.695-5.615 6.02 0 3.325 2.514 6.02 5.615 6.02z"/><path d="M238.098 35.38c5.835 0 10.566-5.073 10.566-11.33 0-6.258-4.731-11.33-10.566-11.33-5.835 0-10.566 5.072-10.566 11.33 0 6.257 4.731 11.33 10.566 11.33z"/><path d="M235.809 18.558l7.904-4.098L266.068 19m-32.849 7.998l2.59 8.382 23.784 5.634 13.857 1.617 2.524-10.295 142.764 27.387-1.165 8.937 11.85 1.941 3.883-8.158 139.463 25.64v8.74l10.683 1.942 2.137-8.158 32.732 8.158M269.436 8.899L250.26 5.046m382.787 110.813l41.696 9.582 4.17.898m351.867 83.789l-3.69-8.417-4.73-19.23 24.74 5.438v22.209m-44.1-31.142l15.35 2.524 4.01 15.805-19.36-18.329zm7.1 12.138l-99.359-20.103m-50.264-10.927l-138.923-26.56m385.726 42.829h4.88l-.68 8.352-4.66-.583.46-7.769zm39.46 6.118l-3.11 6.702 3.88 2.33 3.79-6.799-4.56-2.233zm-340.693 60.537h-53.868v40.92l4.661.648v4.921h-19.684v-4.792l9.844-1.942v-39.107h-7.189l5.116 36.904h-22.273l-2.072-17.481 3.755-2.718v-21.884l-6.214-5.958h-6.865l-3.883 2.979-4.144-1.941v-14.244l1.942-.907v-7.382m44.675 10.231a2.849 2.849 0 10-.001-5.697 2.849 2.849 0 00.001 5.697zm-18.386-12.263a2.848 2.848 0 100-5.696 2.848 2.848 0 000 5.696zm-48.404-81.118c1.696 0 3.072-2.388 3.072-5.333 0-2.945-1.376-5.333-3.072-5.333-1.697 0-3.072 2.388-3.072 5.333 0 2.945 1.375 5.333 3.072 5.333z"/><path d="M683.057 130.152c2.648 0 4.795-3.403 4.795-7.601s-2.147-7.601-4.795-7.601c-2.647 0-4.794 3.403-4.794 7.601s2.147 7.601 4.794 7.601zm48.405 81.318a5.317 5.317 0 100-10.634 5.317 5.317 0 000 10.634zm20.111 4.692h18.604v5.103h-20.329"/><path d="M747 218.416v20.071h-7.771l-3.108-24.732h7.51l1.683-1.944h21.108l1.942-2.459v-4.403l-3.303-2.59h-20.134l-2.072-1.941h-6.734v-19.167l-3.237-3.107h-6.603v9.971h-11.009v-18.646l-1.683-2.462-2.979-1.035h-2.589l-2.59 2.947v20.231l-3.496 3.497v7.51H685.36v-3.107l1.942-2.979v-2.977l-1.942-.52v-3.365l13.338-12.302v-14.813l-2.59-7.072v-10.23l-3.496-4.142v-9.584l2.72-1.359 11.847 3.107 1.166 1.748 13.209.972v-2.913l9.323-1.555 13.013 1.555 2.914-1.166 114.6 23.115h8.352l2.72 3.042-12.237 3.368.582 2.718h10.1l32.828 26.611 6.992-4.273v-18.064l11.458-2.526 72.012 13.209 27.309 24.863 3.63 8.61"/><path d="M752.179 221.264v17.871h57.364l1.813-14.116 2.266 1.166 1.359-1.166v-5.696l-1.359-1.166-3.69-2.461m-140.326-91.437v14.26l-4.058 2.72v12.042l-3.237 6.085v14.892l13.208 12.174v2.718l-2.072 1.813v4.014l2.072 1.296v14.761l-5.05.518-10.748 5.698h-26.674m52.313 66.751a7.51 7.51 0 100-15.02 7.51 7.51 0 000 15.02z"/><path d="M685.36 286.008a9.517 9.517 0 100-19.034 9.517 9.517 0 000 19.034zm-12.39-30.583a7.51 7.51 0 100-15.02 7.51 7.51 0 000 15.02zm22.751 0a7.51 7.51 0 100-15.019 7.51 7.51 0 100 15.019zm-33.41-86.539h36.386m-36.386-3.692h36.386m-33.149-14.761h30.56m-30.56-3.497h30.56m36.193 133.634l-1.23 2.009h-3.562m12.302 6.928v12.819m14.277-12.819l5.925 9.032h25.25l20.784-5.634m-63.127-3.398v7.186m4.08-7.186v7.186m4.078-7.186v7.186"/><path d="M707.375 235.508v23.502l-4.144 4.275H666.39l-6.214-4.275v-21.171l5.284-4.468h37.771m-70.184 50.633h24.991l.972 3.755h43.121v14.567"/><path d="M692.516 302.327l-2.235-4.858h-9.801l-3.019-1.552h-3.592l-2.039 2.622h-5.732v-3.594h-7.768v7.382m-25.283-14.375h19.164v11.556h-5.051l-3.398-2.815h-4.564l.096 2.815h-6.247m30.804-64.776h-24.266s-2.331 3.69-3.107 4.403v21.043h19.812v-3.107h3.886m-20.008 3.105v-25.444m0 13.596h20.008m-20.008-10.489h20.008m-22.533-20.588v12.106l-4.596 6.541m45.678-2.527v-14.656l8.06-5.35h6.085l2.851 5.051v14.955m0-22.337h4.757l1.653 5.438-2.72.583-3.69-6.021zm-34.963 7.681v16.017m-21.173 0l10.58-12.172m23.283-31.596h11.912m-9.84 5.309h10.348"/><path d="M687.223 200.156v10.231h35.431l6.086 5.309h7.685m-34.49-15.54h19.619l4.468-2.589v-9.452h10.099m8.806 14.244v9.452m3.334-9.452v9.452"/><path d="M701.935 193.425h12.692v6.731m-9.196-11.006h4.662m-27.581-66.599l1.748-1.254m8.352 7.769l-6.14-1.18m-13.024-.179l5.276 1.359v2.979h-5.276v-4.338zm2.072 8.482h-2.072v4.013h2.072v-4.013zm11.647 0h-2.072v4.013h2.072v-4.013z"/><path d="M669.606 134.375h10.899v12.438m0-12.438l3.755-.841v-3.382m-93.168 107.687l5.955 3.627v60.86m0-60.86h9.065m-12.044 60.861v-16.316m115.249-6.345v22.66m-15.377-29.932h9.808s7.51-3.217 7.51-13.382m-17.318 22.563h8.191v6.184m0-6.184c3.69 0 15.216-1.909 18.453-18.486m-9.228-2.2l12.981-.517m-16.962-1.362l16.962-.841m-16.962-8.804h16.962m-16.962-10.878h16.962m-11.265 0v10.878m4.776-10.878v10.878m-65.637 10.811c0 6.151 4.662 11.46 9.713 11.46h15.257"/><path d="M677.179 281.575h-18.852s-7.906-1.622-13.453-9.939c-2.765-4.144-2.765-11.46-2.765-11.46"/><path d="M644.025 270.081l-4.44 7.382v6.54m69.732 3.075h3.755v11.461h-3.755m195.527-110.902l5.897 7.081-1.231 4.792 14.244 16.186m-14.472-30.769l5.408 6.197 5.568.875 21.106 23.697m-31.854-16.185c4.793-.907 9.324-4.793 10.748-7.51m51.085-47.976c-18.61 9.127-45.964 19.842-86.206.629"/><path d="M966.099 139.168c-23.568 9.064-42.732 15.409-100.744-2.525-10.939-3.382 38.328 17.547 51.278 23.451 12.951 5.906 28.747-3.315 59.826-18.596"/><path d="M847.613 140.594s-29.912-4.925-44.286-6.219c-14.375-1.295-50.89-10.747-63.516-14.633-12.626-3.885-31.273-4.272-36.58-4.792-5.31-.517-34.315-7.251-58.355-12.008-24.04-4.757-19.192-9.366-19.192-9.366l229.569 44.62 8.529 3.303 7.491-1.425M1047.1 187.92v-9.907l-105.736-19.886m165.456 24.97c-9.29-3.14-14.73-1.716-19.13.874-4.4 2.59-5.83 15.54 3.24 26.157"/><path d="M1085.49 210.128c-5.96-9.841-9.27-21.367-2.89-27.646 6.39-6.28 18.24-6.541 24.22-4.469m5.34 5.084c14.51 3.074 25-.033 32.05 4.822m-32.05-8.933c13.66 2.316 17.42.829 25.45 1.941 6.66.923 8.45 3.019 8.45 3.019m4.46 2.169c7.74 6.659 15.12 16.372 15.12 24.013m-17.34-20.024s11.78 11.866 11.78 20.024m31.85-29.057c2.59 3.676 1.42 14.626-3.76 17.05m-71.86-28.911h9.71l-.52 3.815-9.19-3.815z"/><path d="M1125.5 173.023s11.27-.198 11.65 0c.39.198 12.57 4.99 12.57 4.99h28.68l1.36-7.768-18.84-4.662-2.72-5.438 4.08-18.348 4.08-3.508 18.74 3.508 1.65-13.507m-15.54 49.723l-1.26 2.527h-3.27l-2.59 4.174.65 5.389 3.36 2.219 1.3 3.394 7.06.557 17.28 3.025m-21.27-21.285c2.76 3.627.94 15.848-1.26 17.701"/><path d="M1177.49 210.128l-2.52-8.564-7.9-4.249-4.79-6.191v-4.125l1.81-2.285m-77.96.795l69.63 13.79m-30.26-5.809l-10.62 16.638m-61.89-33.765h-5.89v11.557h5.89v-11.557zm11.85-3.156h-5.9v11.557h5.9v-11.557zm-13.28 14.943v21.978m8.49-25.365v25.365m-1.11-33.275h5.9m-60.41-59.828l3.68 2.848 12.24 3.237 6.09-1.615 5.83-.587v-2.977l-2.2-.906.39-3.238h1.81l1.23-5.375-3.43-1.228.77-7.382 2.66-.648-2.79-2.59m50.15 88.15l-16.02-3.643"/><path d="M1058.94 180.349l-5.95-.781h-5.89m5.89 8.351l7.06 1.231m3.17.448l8.41 1.916-8.41 13.565"/><path d="M1063.22 184.763v25.365l10.23-17.223 2.84 1.165v16.058M982.608 95.075l5.342-3.398 5.245-6.8m35.705 71.513l-1.68 9.969 4.72.907 1.56-9.139-4.6-1.737zm-108.782-21.108l-1.932 8.743 4.403.839 1.941-8.223-4.412-1.359zm-121.355-23.406l-1.748 7.575 5.051.972 1.748-7.575-5.051-.972zM636.285 78.825l-2.462 3.106v3.627l14.375 2.59 13.078.648 1.939-7.627-16.313-3.125-10.617.78zm-16.796 10.407v-2.898l3.069-2.913 11.265.583m-11.136 5.826l230.494 44.546 10.601 1.899"/><path d="M648.519 87.306l-1.552 4.466-13.144.21m27.453-3.186c25.898 3.496 42.88 16.78 74.845 22.959m-64.095-28.9c21.357 4.09 46.614 17.74 83.155 25.772 3.209.706 6.386 1.564 9.486 2.657l35.746 12.603m2.212-5.893l115.561 23.504m1.631-4.857l-116.003-22.854m0 2.072l115.511 23.015m-117.259-18.451l116.12 23.602m6.344-6.412l28.553 5.958m-30.296.454l16.02 3.105m-15.053-6.536l21.961 5.231M798.56 112.75L714.3 96.564m82.715 21.43l-30.667-6.118m31.704 3.077l-61.931-11.233m136.355 51.892l14.761 2.515 2.72-5.557 11.99 1.035m126.773 3.834l-59.111-12.575m57.611 19.684l-68.303-14.374m4.1-2.019l64.203 14.449m.55-2.51c-.16-.079-61.774-13.417-61.774-13.417m66.204 19.109l11.68 2.366a6.508 6.508 0 015.22 6.379v1.83"/><path d="M1051.56 176.363v-3.911a6.502 6.502 0 00-5.05-6.344l-13.01-2.984"/><path d="M1033.03 160.919l22.3 4.568a5.33 5.33 0 014.26 5.221v2.315"/><path d="M1063.22 173.023v-1.998c0-3.759-2.67-6.99-6.37-7.698l-23.35-4.478M342.468 352.568h62.416a6.734 6.734 0 016.733 6.734v72.773a6.733 6.733 0 01-6.733 6.734h-62.416a6.734 6.734 0 01-6.733-6.734v-72.773a6.735 6.735 0 016.733-6.734z"/><path d="M347.13 352.568v95.823h-5.179v-95.823m61.895 0v95.823h-5.179v-95.823m12.433 82.099l-1.296 8.027h-5.958m-5.179 2.201h-4.79l-2.592-6.214m-44.155 6.213h6.603l2.072-6.085m-13.854 6.085h-2.59l-2.979 11.785v-18.647l-4.661.648 1.813 5.569v29.783h-2.461v-26.156l-14.892-17.223h-3.303l-3.496-3.431s-.583-25.833-12.626-47.589c-12.044-21.753-31.467-38.277-31.467-38.277l-19.618-15.136m210.36 57.297h14.375l-2.848 5.698v8.158l1.941 5.308h-4.662l-2.33-2.201h-6.476v-16.963zm3.497 22.918l2.589-.776 3.238 7.123-1.294 1.294-4.533-7.641zm-36.128 3.434l6.605-2.655h11.654v2.655l-18.259 2.783m-7.38 1.425l-4.403.648m4.403-7.511c0-.389-4.403-2.848-4.403-2.848m11.783 17.092l29.914-3.626 1.811 3.626 13.985-1.813 4.144-4.014 2.979 1.942h3.853m-43.608-109.55v11.654l2.461 4.534v38.717m4.662 0v-54.905m-4.662 60.474v25.508h4.662v-25.508"/><path d="M446.71 384.034h-10.878v3.366h10.878v-3.366zM423.4 346.74h15.539m4.662 0h36.484m6.247 0h85.335l2.072 4.273h13.467v-4.273h9.841s3.627 3.366 3.627 7.51v74.718"/><path d="M527.802 346.74c3.723 2.979 4.371 8.417 4.371 14.892v51.02c0 5.699-1.683 8.806-3.627 8.806-1.942 0-5.31-7.123-5.31-15.799V346.74m5.31 74.718h27.453v7.51l-8.806-6.862h-5.697l-4.403 4.79-25.25 2.072-2.72-5.827h-8.027l-2.072-1.683h-12.692m69.667 0v-65.133c0-6.992-3.821-9.582-3.821-9.582m3.821 82.225h5.503v-74.004c0-6.217-4.079-8.224-4.079-8.224m4.079 74.718h29.588l9.582 7.51h6.216v-76.4c0-4.921-3.627-5.828-3.627-5.828m-31.594 0l1.037-3.755h9.582l4.92 3.755m-11.395-.937h4.792m-85.917-26.45h-8.354m29.509 0h87.94l-5.179-6.538h-10.1l-4.307-3.755m-104.11 10.293h-36.484m-7.123.324H423.4m-8.545 0h-23.024m-9.997 0h-27.97c-5.051-11.136-15.54-14.502-15.54-14.502"/><path d="M597.047 346.74h30.819s8.288.648 8.288 10.359v56.847c0 8.158-6.862 8.288-6.862 8.288H606.89m29.588-39.494h7.547v-11.85l36.455-35.414 4.88-14.503"/><path d="M641.042 379.244v-9.81l36.48-35.364 4.407-13.097m-10.036 0l-4.305 13.596-31.434 28.618m-8.288-16.447h26.159m15.581 0h309.032m-8.85-25.767v14.186c0 1.121.415 2.205 1.166 3.039l24.452 27.189c.273.303.502.641.686 1.005l14.788 29.529a4.555 4.555 0 003.49 2.473l13.58 1.739c3.22.413 5.82-2.589 4.96-5.72l-5.56-20.043a4.573 4.573 0 00-.89-1.706l-29.58-35.27a4.548 4.548 0 01-1.063-2.921v-13.498"/><path d="M992.773 320.973v13.27c0 1.634.573 3.214 1.62 4.468l29.237 34.986c.49.585.85 1.263 1.06 1.993l6.85 23.334m-26.01-13.79H1003l-1.57 7.023h-3.478l-2.135-7.023-11.072-4.438m14.381 6.606v-14.183m64.184 10.88v-3.303m0-3.3v-3.303m0-3.011v-3.3m-57.78-38.492h-3.37v3.368h3.37v-3.368zm97.84 24.215h-18.13v2.461h18.13v-2.461z"/><path d="M1004.72 346.741h122.08v-25.768"/><path d="M1126.8 346.74l3.88 4.275h42.22v13.207l-9.33 2.85h-27.32l-6.73 6.147v9.132h-28.23v7.382h-37.49l-2.14 4.272h-5.63l-3.3-3.058h-20.79"/><path d="M1104.39 382.351l.98 3.398h2.42l1.36-3.398m2.92 0l.97 3.398h2.43l1.35-3.398m3.41 0l.97 3.398h2.42l1.36-3.398m4.54-2.039h3.62v17.19l3.63 2.666h28.35v-25.975l-4.27-4.662h-12.69l-2.46 1.651h-13.95m33.37-20.167v15.276m-592.416-7.248v5.827h6.734l3.237-2.914h8.417v-2.913h-18.388zm-316.5-347.417l11.377 2.835m-25.987 272.957h7.641v-10.374l2.848-3.981 3.366 2.072v15.864l5.438 5.018v-23.474l-7.252-7.251V245.61h66.527a6.118 6.118 0 016.119 6.119v25.315l-24.474 13.952h-34.226l-3.65-7.058-3.044-.517"/><path d="M281.801 290.996v-29.07l20.978-10.682v-5.634l-7.382-32.825v-20.784l-3.107-1.748v-8.934l2.603-3.604a12.918 12.918 0 002.448-7.568v-37.993c0-3.233-1.212-6.351-3.399-8.733l-.613-.669a8.067 8.067 0 00-5.95-2.618h-5.739c-1.792 0-3.54.552-5.009 1.58a12.932 12.932 0 00-5.512 10.589v38.8c0 2.484.715 4.918 2.065 7.006l1.82 2.823v64.681m51.279 3.491l3.883 1.748v13.792l5.568 9.906-3.624 4.079m6.214 14.957h-8.547s-2.914-4.855-10.878-4.855v-7.48m.002 7.477h-13.118m23.996 4.858v11.589m24.085 14.502v2.848l1.941 3.692 2.137.97 2.138 4.079-.779 2.137 9.52 19.165"/><path d="M361.341 337.51l3.918-5.789 2.979 1.683-5.279 7.363"/><path d="M366.756 332.567l4.717-6.286s4.273-3.496 7.252.907c2.978 4.402 5.827 12.43 1.034 15.15-4.792 2.72-5.568 3.366-8.675 3.366h-5.676m-9.603-19.486l-17.481 9.118v2.536l1.555 2.895 2.072 1.312 17.351-8.675m-20.209 5.901l19.884-10.141m-15.577 12.19l5.636 11.214"/><path d="M339.748 334.15l-2.461-4.984-1.555-.811s-1.683-7.382-8.417-7.382v27.84h-15.926v-27.84h-1.683l-.518 4.531h-3.405v-20.329h32.541v-23.243l-12.044-4.888m-3.514 85.884h-9.109v14.568h9.109v-14.568z"/><path d="M318.211 372.252a2.04 2.04 0 100-4.08 2.04 2.04 0 000 4.08zm-5.33-23.44v3.14h8.06v-3.14m-10.198-34.445l6.168 2.721 9.372 46.81m-3.517 44.675l12.968 16.64-12.171 2.007-.797-18.647zm5.848-5.051h7.12v15.023l-5.955-7.51 1.228-2.462-2.393-5.051zM292.29 190.25h-17.286m20.395 1.748h-20.395m20.395 2.236h-20.395m20.395 2.403h-20.395m20.395 2.233h-20.395m20.395 2.405h-20.395m20.395 2.548h-20.395m20.395 2.405h-20.395m20.395 2.233h-20.395m20.395 2.403h-20.395m20.395 2.403h-20.395m17.286-31.951h-17.286m-.725-57.483h-3.16v-4.867h-4.273v126.642m8.158-63.32h-8.158m8.158 3.69h-8.158"/><path d="M266.846 188.892c0-26.029-4.013-57.882-7.251-69.926-3.237-12.043-10.619-22.336-21.495-22.336h-69.342c-23.698 0-51.862 4.468-51.862 4.468l4.856 15.733v6.217m119.842 113.236h8.547l16.706 2.851m-25.253.776h7.899l17.354 1.814"/><path d="M237.496 126.173h9.147s17.087 8.333 17.087 16.589M231.884 96.63c8.333 0 10.878 9.323 10.878 16.122v13.421"/><path d="M47.165 213.267l19.845-46.894.678-1.955h-3.496a8.158 8.158 0 01-8.158-8.158v-15.169a6.625 6.625 0 016.624-6.625h8.466c1.834 0 3.563.853 4.68 2.31l1.338 1.744h1.657l6.631-15.671h127.614c17.288 0 24.474 1.359 25.056 4.469.583 3.107 3.497 21.171 3.497 46.81v113.288H189.67c-36.776 0-70.443 34.557-74.069 53.351H53.444s-6.992-79.554-2.072-127.5c14.761-34.216 21.236-50.274 21.236-50.274h2.072v33.644l-4.661 4.638 6.992 22.062H63.802v4.92l7.51 10.878h12.172v-11.654l-4.92-14.211H92.29v-25.933l-12.43 1.554v-2.913l2.33-3.69h10.878s2.849-9.193 2.849-37.424c0-5.179-3.886-9.064-7.769-9.064-3.885 0-9.84 2.33-9.84 19.812m-4.338 0h8.544m-7.834 7.381h7.834"/><path d="M192.84 139.361h-71.284v65.263h71.284v-65.263z"/><path d="M92.292 213.267h108.125v-75.479a3.321 3.321 0 00-3.321-3.322H84.458l2.396-4.881h114.211a6.993 6.993 0 016.993 6.993v150.84"/><path d="M95.008 139.361h17.807a4.08 4.08 0 014.079 4.079v57.324a5.463 5.463 0 01-5.463 5.464H92.29m64.909-1.603v-46.424h35.643m-41.761 45.622v-39.697a5.925 5.925 0 00-5.925-5.925h-10.004l-9.517 35.156 3.107 5.513 6.992 5.755"/><path d="M116.894 164.418l-12.302 25.832-12.3-6.02-12.433 1.748m3.627 53.157h31.077v-6.216H83.486m-19.684-4.662h19.684m-9.516-14.521H51.371m-1.581 57.518h154.9v9.997H49.79m150.628-22.821c3.325 0 6.02-1.479 6.02-3.303 0-1.824-2.695-3.303-6.02-3.303-3.326 0-6.021 1.479-6.021 3.303 0 1.824 2.695 3.303 6.021 3.303z"/><path d="M195.248 253.458h-18.722v3.221h18.722m-13.673-7.575h10.295m-10.295 11.654h10.295m6.993-5.631h3.107m-82.228 85.64c9.583-21.09 30.56-49.773 88.314-49.773h40.531l15.344 14.178v21.043h-87.407s-18.257 2.296-27.777 14.552h-29.005z"/><path d="M263.933 305.175h-76.142c-35.316 0-59.436 35.592-59.436 35.592"/><path d="M247.941 311.65h-41.503v9.323h41.503v-9.323zm-26.807 0v9.323m43.575 0c22.336 14.761 42.731 38.783 49.724 72.126 6.992 33.342 5.818 34.121 5.818 34.121h3.312m-47.782-85.866c24.473 24.227 33.407 42.163 38.848 80.815m-8.846-107.802h-41.85m-245.71 40.965l-6.862 6.17H7.475a6.475 6.475 0 000 12.95h10.748"/><path d="M7.475 370.114a2.137 2.137 0 100-4.275 2.137 2.137 0 000 4.275zm10.747-11.071h7.123a4.792 4.792 0 014.793 4.792v17.481a4.792 4.792 0 01-4.793 4.792h-7.123m2.59-22.662v17.998m2.848-17.998v17.998"/><path d="M51.63 346.962h5.828l1.554 14.411h52.251l6.992-12.56 24.791.235c-20.395 21.868-31.005 55.833-31.005 81.085l-62.25-5.438-19.679-4.866a10.274 10.274 0 01-7.808-9.974v-9.729l-4.08-6.508v-38.284a8.372 8.372 0 018.373-8.372H51.63l-3.496 7.419v69.904m9.324-77.323l60.797 1.851m27.257-8.046l-6.03 8.248"/><path d="M53.444 340.767H34.928v6.195m19.812 0l-1.296 7.225v59.826h51.796s.972-30.494 4.661-45.84H53.444m42.093 60.52l4.072 7.074h18.646M45.803 284.845h-27.58v45.452h30.69l-3.11-45.452z"/><path d="M18.222 330.297l11.913 10.47h4.793m-16.706-55.922l5.438-4.661h23.504l-1.36 4.661m-22.144-4.662s1.555-47.588 7.965-60.408c0 0 2.33-5.671 6.992-6.039 4.662-.369 8.548 0 8.548 0m45.127-18.628h12.3l4.727 11.12m62.35-109.598l-35.739-5.634-3.107 1.748 3.711 5.837m-13.363 1.61l-12.687-10.36s-22.208 3.242-30.625 10.36c-5.16 4.366-10.456 10.874-13.78 15.258-1.85 2.44-1.079 5.951 1.613 7.412l14.417 7.834"/><path d="M87.528 95.842l5.64-7.03a5.159 5.159 0 017.261-.79l3.694 2.974m12.771 10.1l-2.394-1.15a8.706 8.706 0 00-5.913-.587l-10.869 2.764a7.602 7.602 0 00-5.088 4.315l-7.2 16.414m550.724 291.096h10.211m168.616.129h23.138m-515.353 24.732c.24-.266-6.594 2.2-6.594 2.2s-7.774 19.915-15.927 28.012m-188.206-38.887l4.985-2.916 2.718-10.701-6.251-3.59"/></g></svg>