<svg width="184" height="185" fill="none" xmlns="http://www.w3.org/2000/svg"><path d="M92.07 183.811c50.491 0 91.421-40.93 91.421-91.42S142.561.97 92.071.97.65 41.9.65 92.39s40.93 91.42 91.42 91.42z" stroke="#939DA9" stroke-miterlimit="10" stroke-linecap="round" stroke-linejoin="round"/><path d="M92.07 166.084c40.701 0 73.695-32.994 73.695-73.694s-32.994-73.694-73.694-73.694S18.376 51.69 18.376 92.39s32.994 73.694 73.694 73.694z" stroke="#939DA9" stroke-miterlimit="10" stroke-linecap="round" stroke-linejoin="round"/><path d="M92.07 151.958c32.898 0 59.567-26.669 59.567-59.567 0-32.898-26.669-59.567-59.567-59.567-32.897 0-59.566 26.669-59.566 59.567 0 32.898 26.669 59.567 59.566 59.567z" stroke="#939DA9" stroke-miterlimit="10" stroke-linecap="round" stroke-linejoin="round"/><path d="M92.07 135.446c23.779 0 43.056-19.276 43.056-43.055S115.849 49.335 92.07 49.335c-23.778 0-43.055 19.277-43.055 43.056 0 23.779 19.277 43.055 43.055 43.055z" stroke="#939DA9" stroke-miterlimit="10" stroke-linecap="round" stroke-linejoin="round"/><path d="M92.07 122.885c16.842 0 30.495-13.653 30.495-30.494 0-16.842-13.653-30.495-30.495-30.495-16.841 0-30.494 13.653-30.494 30.495 0 16.841 13.653 30.494 30.494 30.494z" stroke="#939DA9" stroke-miterlimit="10" stroke-linecap="round" stroke-linejoin="round"/><path d="M92.07 104.22c6.534 0 11.83-5.296 11.83-11.83 0-6.532-5.297-11.829-11.83-11.829-6.532 0-11.828 5.296-11.828 11.83 0 6.532 5.295 11.829 11.828 11.829zm0-30.087a3.69 3.69 0 100-7.38 3.69 3.69 0 000 7.38zm0 43.896a3.69 3.69 0 100-7.38 3.69 3.69 0 000 7.38zm21.95-21.949a3.69 3.69 0 100-7.379 3.69 3.69 0 000 7.38zm-43.896 0a3.69 3.69 0 100-7.379 3.69 3.69 0 000 7.38zm37.467-15.518a3.69 3.69 0 100-7.38 3.69 3.69 0 000 7.38zm-31.039 31.039a3.69 3.69 0 100-7.38 3.69 3.69 0 000 7.38zm31.039 0a3.69 3.69 0 100-7.38 3.69 3.69 0 000 7.38zM76.552 80.562a3.69 3.69 0 100-7.38 3.69 3.69 0 000 7.38zm18.5-79.543l6.342 9.533s8.158.776 12.626 2.59V7.079s-.62-2.97-2.739-4.088" stroke="#939DA9" stroke-miterlimit="10" stroke-linecap="round" stroke-linejoin="round"/><path d="M102.042 1.508l1.858 2.31-2.506 6.733M89.09 183.763l-6.343-9.533s-8.158-.776-12.626-2.589v6.062s.62 2.97 2.739 4.088" stroke="#939DA9" stroke-miterlimit="10" stroke-linecap="round" stroke-linejoin="round"/><path d="M82.1 183.272l-1.858-2.31 2.505-6.732m100.695-78.859l-9.533 6.342s-.776 8.158-2.59 12.626h6.063s2.969-.62 4.088-2.738" stroke="#939DA9" stroke-miterlimit="10" stroke-linecap="round" stroke-linejoin="round"/><path d="M182.953 102.361l-2.31 1.86-6.734-2.508M.7 89.412l9.533-6.343s.776-8.157 2.59-12.626H6.76s-2.97.62-4.089 2.74" stroke="#939DA9" stroke-miterlimit="10" stroke-linecap="round" stroke-linejoin="round"/><path d="M1.189 82.421l2.31-1.86 6.734 2.506M158.789 29.89l-2.257 11.225s5.219 6.319 7.096 10.76l4.286-4.287s1.662-2.539.953-4.827" stroke="#939DA9" stroke-miterlimit="10" stroke-linecap="round" stroke-linejoin="round"/><path d="M163.385 35.178l-.319 2.949-6.534 2.99M25.355 154.895l2.256-11.225s-5.219-6.319-7.095-10.759l-4.286 4.286s-1.662 2.538-.954 4.827" stroke="#939DA9" stroke-miterlimit="10" stroke-linecap="round" stroke-linejoin="round"/><path d="M20.759 149.604l.317-2.946 6.533-2.991m126.963 15.442l-11.225-2.256s-6.319 5.218-10.759 7.095l4.286 4.286s2.538 1.662 4.827.953" stroke="#939DA9" stroke-miterlimit="10" stroke-linecap="round" stroke-linejoin="round"/><path d="M149.284 163.706l-2.947-.32-2.99-6.533M29.57 25.675l11.225 2.256s6.319-5.218 10.759-7.095a386404.7 386404.7 0 00-4.287-4.286s-2.538-1.662-4.827-.953" stroke="#939DA9" stroke-miterlimit="10" stroke-linecap="round" stroke-linejoin="round"/><path d="M34.858 21.08l2.948.318 2.988 6.534M118.584 4.9l3.662 10.85s7.68 2.86 11.525 5.767c1.038-3.88 1.569-5.856 1.569-5.856s.17-3.03-1.587-4.657" stroke="#939DA9" stroke-miterlimit="10" stroke-linecap="round" stroke-linejoin="round"/><path d="M125.208 7.182l1.198 2.71-4.161 5.858M65.56 179.883l-3.662-10.85s-7.68-2.86-11.526-5.766a5469.179 5469.179 0 01-1.569 5.855s-.17 3.03 1.587 4.657" stroke="#939DA9" stroke-miterlimit="10" stroke-linecap="round" stroke-linejoin="round"/><path d="M58.933 177.601l-1.198-2.71 4.163-5.858m117.665-50.13l-10.85 3.662s-2.86 7.68-5.767 11.526c3.879 1.037 5.856 1.569 5.856 1.569s3.03.17 4.657-1.588" stroke="#939DA9" stroke-miterlimit="10" stroke-linecap="round" stroke-linejoin="round"/><path d="M177.281 125.53l-2.713 1.198-5.855-4.163M4.58 65.88l10.85-3.662s2.86-7.68 5.767-11.526c-3.88-1.038-5.856-1.569-5.856-1.569s-3.03-.168-4.657 1.587" stroke="#939DA9" stroke-miterlimit="10" stroke-linecap="round" stroke-linejoin="round"/><path d="M6.862 59.253l2.71-1.198 5.856 4.163m157.257-12.945l-5.084 10.26s3.408 7.454 4.072 12.227l5.249-3.032s2.261-2.023 2.17-4.415" stroke="#939DA9" stroke-miterlimit="10" stroke-linecap="round" stroke-linejoin="round"/><path d="M175.757 55.57l-1.072 2.767-7.084 1.196M11.458 135.511l5.084-10.26s-3.408-7.452-4.072-12.228l-5.25 3.032s-2.26 2.024-2.17 4.415" stroke="#939DA9" stroke-miterlimit="10" stroke-linecap="round" stroke-linejoin="round"/><path d="M8.386 129.213l1.07-2.766 7.086-1.196m118.647 47.754l-10.261-5.083s-7.454 3.408-12.227 4.072l3.032 5.249s2.023 2.261 4.415 2.17" stroke="#939DA9" stroke-miterlimit="10" stroke-linecap="round" stroke-linejoin="round"/><path d="M128.891 176.078l-2.765-1.073-1.198-7.083M48.952 11.779l10.26 5.083s7.454-3.408 12.228-4.072l-3.032-5.249s-2.024-2.26-4.415-2.17" stroke="#939DA9" stroke-miterlimit="10" stroke-linecap="round" stroke-linejoin="round"/><path d="M55.25 8.707l2.764 1.07 1.198 7.086m80.774-2.33l.778 11.424s6.699 4.722 9.678 8.512l3.007-5.263s.934-2.888-.35-4.906" stroke="#939DA9" stroke-miterlimit="10" stroke-linecap="round" stroke-linejoin="round"/><path d="M145.81 18.426l.469 2.928-5.517 4.603M44.158 170.25l-.779-11.423s-6.698-4.723-9.677-8.513l-3.007 5.264s-.935 2.887.35 4.906" stroke="#939DA9" stroke-miterlimit="10" stroke-linecap="round" stroke-linejoin="round"/><path d="M38.33 166.358l-.468-2.928 5.517-4.603m126.551-18.521l-11.423.778s-4.723 6.699-8.512 9.678l5.263 3.007s2.887.934 4.906-.35" stroke="#939DA9" stroke-miterlimit="10" stroke-linecap="round" stroke-linejoin="round"/><path d="M166.038 146.131l-2.928.468-4.603-5.515M14.214 44.478l11.423-.779s4.722-6.698 8.512-9.677l-5.263-3.007s-2.888-.935-4.906.35" stroke="#939DA9" stroke-miterlimit="10" stroke-linecap="round" stroke-linejoin="round"/><path d="M18.106 38.65l2.928-.466 4.603 5.515m155.37 27.518l-7.529 8.629s1.399 8.074.825 12.861l5.848-1.594s2.702-1.38 3.224-3.718" stroke="#939DA9" stroke-miterlimit="10" stroke-linecap="round" stroke-linejoin="round"/><path d="M182.372 78.09l-1.739 2.401-7.156-.646M3.137 113.566l7.529-8.629s-1.399-8.074-.825-12.861L3.993 93.67S1.29 95.05.769 97.388" stroke="#939DA9" stroke-miterlimit="10" stroke-linecap="round" stroke-linejoin="round"/><path d="M1.769 106.693l1.739-2.401 7.155.646m102.583 76.388l-8.629-7.529s-8.074 1.399-12.861.825l1.594 5.849s1.38 2.701 3.718 3.223" stroke="#939DA9" stroke-miterlimit="10" stroke-linecap="round" stroke-linejoin="round"/><path d="M106.372 182.694l-2.4-1.741.645-7.156M70.897 3.457l8.629 7.529s8.074-1.399 12.861-.825c-1.055-3.872-1.596-5.848-1.596-5.848s-1.38-2.702-3.718-3.224" stroke="#939DA9" stroke-miterlimit="10" stroke-linecap="round" stroke-linejoin="round"/><path d="M77.768 2.09l2.403 1.74-.645 7.156" stroke="#939DA9" stroke-miterlimit="10" stroke-linecap="round" stroke-linejoin="round"/></svg>