<svg width="25" height="35" fill="none" xmlns="http://www.w3.org/2000/svg"><g filter="url(#filter0_d)"><path d="M5 10.418a3 3 0 013-3h9a3 3 0 013 3v11.01a3 3 0 01-1.653 2.681l-4.5 2.261a3 3 0 01-2.694 0l-4.5-2.26A3 3 0 015 21.428v-11.01z" fill="#C6CDCE"/><path d="M12.5 18.214c1.933 0 3.5-1.538 3.5-3.435s-1.567-3.435-3.5-3.435S9 12.882 9 14.779s1.567 3.435 3.5 3.435z" fill="#fff"/></g><defs><filter id="filter0_d" x="-4" y=".548" width="33" height="41.197" filterUnits="userSpaceOnUse" color-interpolation-filters="sRGB"><feFlood flood-opacity="0" result="BackgroundImageFix"/><feColorMatrix in="SourceAlpha" values="0 0 0 0 0 0 0 0 0 0 0 0 0 0 0 0 0 0 127 0"/><feOffset dy="4"/><feGaussianBlur stdDeviation="2"/><feColorMatrix values="0 0 0 0 0 0 0 0 0 0 0 0 0 0 0 0 0 0 0.25 0"/><feBlend in2="BackgroundImageFix" result="effect1_dropShadow"/><feBlend in="SourceGraphic" in2="effect1_dropShadow" result="shape"/></filter></defs></svg>