<svg width="23" height="28" fill="none" xmlns="http://www.w3.org/2000/svg"><g filter="url(#filter0_d)"><path d="M4 3.307a3 3 0 013-3h9a3 3 0 013 3v11.01a3 3 0 01-1.653 2.68l-4.5 2.262a3 3 0 01-2.694 0l-4.5-2.261A3 3 0 014 14.318V3.306z" fill="#005AFF"/><path d="M11.5 11.103c1.933 0 3.5-1.538 3.5-3.435 0-1.898-1.567-3.436-3.5-3.436S8 5.77 8 7.668c0 1.897 1.567 3.435 3.5 3.435z" fill="#fff"/></g><defs><filter id="filter0_d" x="0" y=".307" width="23" height="27.272" filterUnits="userSpaceOnUse" color-interpolation-filters="sRGB"><feFlood flood-opacity="0" result="BackgroundImageFix"/><feColorMatrix in="SourceAlpha" values="0 0 0 0 0 0 0 0 0 0 0 0 0 0 0 0 0 0 127 0"/><feOffset dy="4"/><feGaussianBlur stdDeviation="2"/><feColorMatrix values="0 0 0 0 0 0 0 0 0 0 0 0 0 0 0 0 0 0 0.25 0"/><feBlend in2="BackgroundImageFix" result="effect1_dropShadow"/><feBlend in="SourceGraphic" in2="effect1_dropShadow" result="shape"/></filter></defs></svg>