<svg width="173" height="41" fill="none" xmlns="http://www.w3.org/2000/svg"><path fill-rule="evenodd" clip-rule="evenodd" d="M43.538 19.233l.57-1.826-1.885.06c-.158 0-1.317-.034-2.438-.848.084.007.166.02.254.02 1.155 0 2.274-.698 2.72-1.696l.811-1.8c-1.016.013-1.946-.115-1.946-.115-.008 0-.74-.096-1.586-.963-.607-.62-1.36-.95-2.173-.95a3.131 3.131 0 00-.95.152c.044-.146.084-.294.108-.447.258-1.686-.824-2.97-.824-2.97l-1.417-1.757-.879 2.064c-.003.007-.225.492-.621.728-.12-.608-.415-1.29-1.043-1.942-1.186-1.229-2.628-1.414-3.383-1.414-.35 0-.6.04-.66.049l-1.71.337c.098-.382.309-1.05.692-1.65l.945-1.472-2.375.271-.757-1.61-1.465.757L22.172.87 20.82 2.21l-1.468-.756-.755 1.609-2.374-.271.945 1.474c.385.6.594 1.264.692 1.647l-1.631-.324-.057-.008a4.27 4.27 0 00-.681-.052c-.756 0-2.198.185-3.38 1.414-.63.65-.925 1.334-1.045 1.942-.394-.235-.614-.71-.614-.71l-.88-2.079-1.44 1.772c-.176.227-1.043 1.435-.808 2.955.025.152.064.3.107.445-.306-.1-.625-.15-.947-.151-.815 0-1.567.329-2.175.949-.843.864-1.572.962-1.566.962 0 0-.77.138-1.963.115l.807 1.802c.448.997 1.568 1.695 2.72 1.695.088 0 .17-.013.256-.02-1.12.815-2.277.849-2.417.849l-1.918-.062.58 1.825c.294.942 1.271 2.5 3.142 2.667-.204.855-.655 1.813-1.646 2.226l-1.43.59.78 1.36c.44.733 1.473 1.59 2.943 1.59.318 0 .625-.033.922-.095.075.335.17.67.282 1.005.436 1.304.06 2.214.055 2.225l-.704 1.48 1.573.416c.02.007.497.138 1.092.138a3.328 3.328 0 001.299-.255c.204.366.451.7.74 1 1.009 1.038 2.44 1.563 4.251 1.563h.006l1.293-.017-2.671 1.113 2.028.983c.738.36 1.611.785 2.502 1.11l-.254.694.699.32c.062.03 1.409.63 3.643.759 0 0 .54.025.836.025.298 0 .831-.026.831-.026 2.22-.132 3.555-.729 3.617-.758l.7-.32-.254-.695c.914-.334 1.82-.778 2.528-1.123l1.991-.97-2.664-1.112 1.3.017c1.812 0 3.244-.526 4.252-1.564.287-.298.533-.632.739-1 .412.171.854.258 1.3.255.585 0 1.067-.13 1.08-.134l1.582-.42-.69-1.453c-.016-.037-.392-.947.044-2.254a10.4 10.4 0 00.282-1.002c.297.062.607.095.927.096A3.435 3.435 0 0042.7 26.06l.772-1.347-1.43-.588c-.992-.412-1.443-1.37-1.644-2.223 1.847-.162 2.836-1.72 3.141-2.668h-.001z" fill="#FFFFFE"/><path fill-rule="evenodd" clip-rule="evenodd" d="M22.172 6.463c-1.513.001-2.648.498-2.895 1.083l2.895 1.143 2.895-1.143c-.244-.585-1.38-1.082-2.895-1.083zm.03 30.298h-.057c-.917.005-2.181-.183-2.789-.362l-.732 1.985c.483.172 2.118.502 3.551.502 1.43 0 3.067-.33 3.548-.502l-.73-1.983c-.611.177-1.873.365-2.79.36zm5.54-1.975c-.545.31-1.761.774-2.469.989l.594 1.64c1.094-.3 1.998-.65 2.744-1.026l-1.233-.41.364-1.193zm-11.137 0l.365 1.193-1.235.41c.745.375 1.653.725 2.744 1.024l.595-1.64c-.707-.214-1.925-.677-2.47-.987zm5.567-30.22c1.142 0 2.26.273 3.12.753.08-.264.189-.585.338-.92l-.326.039-.34.034-.145-.31-.436-.92-.792.413-.31.157-.247-.243-.862-.854-.86.854-.247.243-.308-.157-.797-.414-.43.92-.147.312-.342-.035-.323-.04c.149.336.257.657.337.92.864-.479 1.982-.752 3.118-.752h-.001zM39.59 15.209c.149.05.3.073.448.073.647 0 1.27-.419 1.484-.897 0 0-1.184-.071-2.456-1.366-.404-.418-.834-.544-1.201-.544-.572 0-1.001.302-1.001.302 1.538.82 1.85 2.136 2.726 2.432zm-35.281.072c.15 0 .3-.022.444-.074.878-.295 1.194-1.61 2.729-2.43 0 0-.43-.302-.998-.302-.37 0-.798.125-1.204.545-1.272 1.294-2.454 1.366-2.454 1.366.212.477.837.896 1.483.896z" fill="#FFFFFE"/><path fill-rule="evenodd" clip-rule="evenodd" d="M39.127 24.651c-1.19-.588-1.94-2.147-2.122-2.709-.197 3.093-1.704 5.238-3.464 7.303-.915 1.071-1.234 2.113-1.234 2.113s.177-1.18.967-2.141c1.643-1.977 3.204-4.439 3.32-7.286.08-1.986-.429-3.597-1.226-4.925.446 1.382.383 3.076-1.129 4.657 0 0 3.01-3.612-1.197-7.316-1.684-1.409-3.527-2.28-4.475-2.896 3.426 1.12 5.1-.113 5.1-.113-1.094.95-2.51.934-3.39.797.24.116.488.239.753.38 2.89 1.573 5.486 4.161 5.93 7.743v-.028c.67 3.518 2.167 4.421 2.167 4.421zm.88-4.099c.026.003.05.003.076.003 1.61 0 2.156-1.729 2.156-1.729h-.031c-.296 0-2.69-.07-4.384-2.225-1.113-1.417-2.026-2.663-3.83-3.152l-.178-.033-.038-.181c-.05-.276.139-.535.569-.813 2.488-1.633.796-3.716.796-3.716s-.709 1.665-2.299 1.665l-.119-.002c-.18-.01-.354-.015-.53-.053l-.293-.058s.454-1.235-.64-2.368c-.824-.857-1.828-1.002-2.406-1.002-.292 0-.477.038-.477.038.55.72.947 1.914.312 2.651-.549.633-1.888.664-1.888 1.608 0 .4.373.866 1.043 1.286 2.013 1.27 4.012 2.956 4.844 5.215 1.039 2.818-.132 4.688-1.802 5.761 0 0 .524.483 1.283.545.155.015.306.022.447.022 1.604 0 2.433-.754 2.433-.754s-.138 1.041-.97 2.008c-.771.891-1.782 1.418-3.323 1.44 0 0-.049.716.634 1.337.437.391 1.445.52 1.445.52s-1.889.382-2.098 3.177c-.113 1.515-.498 2.04-.498 2.04h.033c4.383 0 4.271-3.766 4.271-3.766s.305 1.116 1.528 1.406c.148.04.306.055.456.055.392 0 .735-.093.735-.093s-.64-1.353-.005-3.245c.527-1.572.442-2.736.442-2.736s.59.895 2.055.903h.015a2.058 2.058 0 001.75-.926c-2.922-1.216-2.633-5.138-2.633-5.138s.379.284 1.119.311zm-29.201 8.693c-1.76-2.065-3.268-4.21-3.466-7.303-.182.563-.931 2.122-2.12 2.71 0 0 1.495-.904 2.166-4.422v.028c.444-3.582 3.04-6.17 5.93-7.741.266-.144.515-.266.752-.381-.878.136-2.296.152-3.39-.797 0 0 1.675 1.232 5.1.112-.947.617-2.79 1.487-4.472 2.896-4.209 3.704-1.199 7.316-1.199 7.316-1.512-1.582-1.575-3.273-1.129-4.657-.797 1.328-1.307 2.939-1.224 4.926.114 2.846 1.674 5.308 3.314 7.286.795.959.973 2.139.973 2.139s-.323-1.04-1.235-2.112zm.704-.682s1.008-.127 1.446-.52c.681-.62.634-1.335.634-1.335-1.543-.022-2.552-.549-3.327-1.44-.829-.966-.967-2.008-.967-2.008s.829.754 2.43.754c.145 0 .295-.007.448-.022a2.365 2.365 0 001.287-.545c-1.672-1.073-2.843-2.943-1.805-5.762.831-2.257 2.829-3.944 4.845-5.216.668-.418 1.04-.884 1.04-1.284 0-.944-1.337-.975-1.885-1.608-.635-.737-.237-1.932.311-2.651 0 0-.183-.038-.476-.038-.578 0-1.581.145-2.406 1.002-1.097 1.134-.64 2.37-.64 2.37l-.294.057c-.174.036-.35.043-.531.053l-.115.001c-1.594 0-2.302-1.664-2.302-1.664s-1.689 2.082.8 3.715c.427.278.615.538.565.813l-.038.18-.181.033c-1.8.49-2.714 1.736-3.83 3.153-1.692 2.156-4.085 2.225-4.381 2.225h-.033s.547 1.729 2.159 1.729c.025 0 .048 0 .076-.003.74-.026 1.12-.31 1.12-.31s.286 3.922-2.635 5.138c0 0 .532.927 1.751.927h.014c1.467-.009 2.056-.904 2.056-.904s-.086 1.165.44 2.736c.635 1.893-.003 3.244-.003 3.244s.34.093.735.093c.152 0 .308-.014.455-.054 1.221-.29 1.527-1.406 1.527-1.406s-.112 3.767 4.273 3.767h.032s-.385-.526-.497-2.04c-.208-2.795-2.099-3.18-2.099-3.18h.001zm9.673-13.879h2.067v.71c-.242-.298-.716-.236-.716-.236v1.024s.016.503.194.721h-1.023c.179-.218.194-.721.194-.721v-1.024s-.471-.062-.716.236v-.71zm-2.252.106c.072.078.142.162.21.246.017.02.032.037.048.06.064.084.127.174.188.264l.042.06c.072.112.142.226.211.345.633 1.093 1.644 1.747 2.542 1.748.899-.001 1.91-.655 2.543-1.748a6.137 6.137 0 01.485-.725c.07-.088.143-.173.217-.252.013-.011.023-.024.036-.035a2.63 2.63 0 011.21-.721l-.225-.13h-.011l-.892-.518-.913-.525-2.444 1.332-.006-.006-.004.006-2.443-1.332-.915.525-.891.517h-.01l-.226.13a2.61 2.61 0 011.21.72c.013.012.022.028.038.04z" fill="#FFFFFE"/><path fill-rule="evenodd" clip-rule="evenodd" d="M21.395 10.168v.67l-.129-.06c-.005-.005-.195-.046-.522-.307-.541-.42-.552-.808-.552-.808l1.201.505h.002zm.565 3.138v-4.16l-2.642-.898.698 4.03 1.945 1.028zm.993-3.138l1.201-.505s-.01.387-.553.808c-.327.26-.515.302-.52.307l-.128.059v-.669zm1.378 2.111l.694-4.03-2.641.897v4.16l1.947-1.028v.001zm-6.107 10.668c.257.093.569.112.73.112.005-.02.014-.044.023-.074.012-.046.026-.094.037-.145.044-.231.06-.49.064-.66a.926.926 0 01-.347-.367c-.099-.206-.238-.303-.443-.303-.265 0-.55.161-.674.235-.097.575.327 1.097.61 1.201v.001zm5.845-2.206c-.49.534-1.452 1.466-1.498 1.512l-.058.058-3.037-.047a3.15 3.15 0 01-.096.744l-.025.096 3.611.652c.375-.264 1.409-1.02 1.81-1.317-.292-.427-.32-.934-.253-1.29a1.806 1.806 0 01-.454-.408z" fill="#FFFFFE"/><path fill-rule="evenodd" clip-rule="evenodd" d="M24.48 17.082c-.699.695-1.37.953-1.969 1.013a3.04 3.04 0 01-.33.018h-.015c-.22 0-.44-.023-.656-.069-.04.156-.089.483.053.792.127.28.385.49.761.63l.127.05.001.135c0 .04.03.925.993 1.171.157-.161.3-.308.404-.432-.196-.463-.092-.936.193-1.168-.011.05-.138 1.21.791 1.642l.154.072-.046.163c-.015.05-.325 1.174.8 1.591l.2.077-.09.193c-.02.042-.46 1.062.579 1.642h2.253v-1.794c-.802-.098-1.14-.743-1.228-1.2-.373-.064-.66-.225-.858-.487-.473-.623-.067-1.195-.06-1.226-.002.005 0 .612.373.988.186.18.406.321.74.353l.162.015.014.167c.003.036.092.86.857.989l-.001-3.66c0-.569.165-1.14.363-1.666h-4.564v.001zm-6.065 1.678l-.06 2.33.266.042.646-2.237-.329-.688-.521.553h-.002zm1.402 8.63a.132.132 0 01-.093-.044.13.13 0 01-.033-.098.132.132 0 01.142-.123c.077.003.13.069.127.14a.135.135 0 01-.143.125zm5.73 2.063c.02 0 .042.003.063.009.404.115.505 1.568 1.21 1.697.07.015.134.018.19.018.204 0 .325-.086.457-.242 0 0-.356-.558-.621-.935-.352-.494-.626-1.091-1.283-1.091-.016 0-.035 0-.052.002a.653.653 0 00-.349.118 1.357 1.357 0 00-.739-.226c-.41 0-.73.19-.891.19h-.006l-1.466-.146c-.23-.023-.412-.254-.477-.344l-.026-.04c0-.04 0-.08-.002-.116-.05-1.202-.978-1.716-1.31-1.725 0 0 .04-.228-.05-.315l-.322.393-1.063-.534.758.887-.641.722c-.081.082-.07.192-.037.24l.277.245.351-.214c.017-.013.05-.017.089-.017.097 0 .242.025.373.025.144 0 .268-.03.283-.165-.044.446-.457 1.22-.186 1.829l.2.46-1.296-.188-.607 1.027c-.187.342-.217.711-.037.912l.227.285s.319-.338.39-.56l-.103-.114c-.087-.096-.082-.181-.03-.284l.382-.633 1.53.362.08-.139c.105-.173.255-.224.419-.224.068 0 .137.008.209.02.284.056.751.131 1.219.131.514 0 1.023-.092 1.294-.396.555.824 1.68.954 1.59 1.373l-.295 1.411c.196-.009.384-.022.563-.046l.282-1.468c.023-.124.043-.25.06-.375-.108-.11-.37-.343-.52-.626-.197-.382-.09-.582-.274-1.078 0 0 .057-.116.187-.116v.001z" fill="#FFFFFE"/><path fill-rule="evenodd" clip-rule="evenodd" d="M17.726 30.788s.508-.208.554-.358l-.069-.169c-.047-.11-.042-.23.052-.295l.547-.38.916.177s-.166-.208-.15-.486l-.873-.184-.825.502a.801.801 0 00-.262.953l.11.241v-.001zM24.2 33.18c.163-.007.346-.009.543-.009 0 0 .471-1.38.498-1.424-.35-.163-.692-.344-1.023-.541.14.21.479.449.412.634l-.43 1.34z" fill="#FFFFFE"/><path fill-rule="evenodd" clip-rule="evenodd" d="M28.683 24.998h-13.02v4.906c0 2.007 1.45 3.262 3.59 3.262 1.786 0 2.257.07 2.92.731.46-.458.838-.628 1.617-.692l.018-.075.41-1.272c-.023-.029-.693-.792-.693-.792-.266.089-.49.104-.866.104-.385 0-.82-.046-1.292-.134a.597.597 0 00-.135-.016c-.058 0-.062.005-.078.033l-.08.136-.15.247-.281-.066-1.25-.295-.172.283.027.031.151.168-.067.22c-.092.284-.39.618-.481.71l-.312.335-.285-.359-.214-.269c-.225-.252-.277-.637-.15-1.041a.025.025 0 01-.013.004l-.352.147-.158-.346-.112-.244a1.194 1.194 0 01.396-1.44l1.005-.57.958.189c.023-.092.058-.42.084-.505-.018-.002-.036-.005-.054-.005l-.552.205-.531-.367s-.208-.201-.02-.402l.514-.782-1.305-1.64 2.006.825.134-.165.27-.326.307.294c.081.079.137.18.162.29.552.215 1.543.852 1.63 1.886l-.31.124v.008c.071.084.13.119.149.122l1.431.141c.037-.007.081-.023.132-.037.18-.061.446-.15.762-.15.259 0 .508.06.747.173a1.08 1.08 0 01.324-.067l.069-.002c.765 0 1.146.574 1.452 1.032.051.08.102.154.155.228.268.379.618.932.632.956l.158.246-.194.226c-.148.173-.373.375-.756.375-.087 0-.174-.01-.259-.026a1.096 1.096 0 01-.229-.07 5.892 5.892 0 01-.04.243l-.25 1.313c1.5-.37 2.454-1.506 2.454-3.132l-.003-4.906zm-13.02-.395H25.79c-.505-.524-.497-1.186-.37-1.616a1.67 1.67 0 01-.377-.25 195.63 195.63 0 01-1.919 1.395l-.068.046-3.974-.72H19c-.095 0-.235-.004-.387-.023a.387.387 0 01-.693.14.387.387 0 01-.07-.293l.016-.086c-.409-.289-.789-.936-.62-1.617l.016-.071.058-.042c.058-.04.118-.077.18-.11l-.289-.047a.2.2 0 01-.164-.225.197.197 0 01.227-.165l.687.108.063-2.426 1.023-1.085.64 1.347-.674 2.335.607.096a.199.199 0 01.097.345.195.195 0 01-.127.046h-.031l-.496-.082c.007.017.016.025.023.04a.542.542 0 00.238.22l3.029.05c.128-.126.446-.438.774-.768a1.637 1.637 0 01-1.063-1.354c-.415-.178-.704-.444-.863-.79-.194-.43-.125-.86-.073-1.068-.404-.147-.83-.417-1.263-.849h-4.564c.197.526.362 1.097.362 1.664v5.855z" fill="#FFE52B"/><path fill-rule="evenodd" clip-rule="evenodd" d="M19.833 27.125a.133.133 0 00-.097.032.132.132 0 00-.045.093.13.13 0 00.033.097.13.13 0 00.093.043.136.136 0 00.143-.123.135.135 0 00-.127-.142zm6.035 10.288l-.595-1.64c.708-.216 1.924-.68 2.47-.988l-.364 1.193 1.232.41c-.746.374-1.649.724-2.743 1.024v.001zm-3.693 1.472c-1.433 0-3.068-.33-3.55-.502l.731-1.984c.608.178 1.871.366 2.789.36h.058c.916.006 2.179-.183 2.79-.36l.73 1.984c-.482.173-2.117.502-3.548.502zm-6.439-2.497l1.234-.41-.365-1.193c.544.308 1.763.774 2.468.988l-.594 1.64c-1.091-.3-1.998-.651-2.742-1.025zm12.93-.364l-.75-.289.208-.776.227-.846s-1.328.723-3.201 1.264c-.532.153-.933.223-.933.223v.576s-1.003.174-2.014.174h-.058c-1.014 0-2.014-.174-2.014-.174V35.6s-.403-.07-.934-.222c-1.872-.542-3.2-1.264-3.2-1.264l.224.846.213.776-.753.289-.835.312c.956.463 2.282 1.136 3.494 1.468l-.285.783s1.538.702 4.1.71h.035c2.566-.008 4.104-.71 4.104-.71l-.289-.783c1.214-.332 2.542-1.004 3.493-1.468l-.831-.312zM19.043 4.435l.341.037.147-.312.43-.92.796.413.31.159 1.106-1.1.862.855.247.245.31-.159.792-.413.436.92.145.312.34-.037.326-.038a7.864 7.864 0 00-.338.922c-.86-.482-1.979-.754-3.12-.754-1.136 0-2.253.272-3.117.754a7.896 7.896 0 00-.337-.922l.323.038h.001zm3.13.609c1.527 0 2.748.508 3.423 1.047 0 0 .201-1.209.885-2.275l-1.23.139-.643-1.368-1.236.638-1.2-1.187-1.195 1.187-1.237-.638-.642 1.369-1.23-.14c.685 1.066.884 2.274.884 2.274.68-.54 1.896-1.046 3.42-1.046zm19.35 20.335s-.531.927-1.75.927h-.016c-1.464-.01-2.055-.904-2.055-.904s.085 1.164-.441 2.735c-.635 1.894.004 3.245.004 3.245s-.341.094-.735.094c-.15 0-.307-.015-.456-.055-1.223-.29-1.528-1.405-1.528-1.405s.113 3.766-4.271 3.766h-.035s.387-.526.502-2.04c.207-2.795 2.096-3.18 2.096-3.18s-1.008-.127-1.445-.518c-.683-.62-.635-1.337-.635-1.337 1.542-.022 2.554-.547 3.324-1.44a4.25 4.25 0 00.97-2.008s-.83.754-2.433.754a4.64 4.64 0 01-.446-.022 2.347 2.347 0 01-1.284-.545c1.67-1.073 2.84-2.945 1.803-5.762-.832-2.257-2.832-3.944-4.844-5.215-.67-.419-1.044-.885-1.044-1.286 0-.943 1.34-.973 1.89-1.607.634-.737.236-1.932-.314-2.651 0 0 .185-.038.477-.038.58 0 1.582.145 2.406 1.002 1.094 1.134.64 2.37.64 2.37l.293.057c.176.036.35.044.532.053l.117.001c1.59 0 2.3-1.665 2.3-1.665s1.69 2.083-.797 3.716c-.429.278-.618.538-.569.813l.04.181.176.031c1.804.491 2.717 1.738 3.832 3.154 1.692 2.156 4.087 2.225 4.382 2.225h.032s-.546 1.729-2.157 1.729c-.026 0-.05 0-.076-.003-.74-.026-1.12-.31-1.12-.31s-.288 3.922 2.635 5.138zm-1.439-4.297c1.974 0 2.635-2.012 2.663-2.098l.22-.71-.74.023h-.002c-.262 0-2.44-.058-3.984-2.024l-.147-.182c-1.009-1.286-1.966-2.508-3.677-3.066.068-.06.141-.114.218-.163.908-.598 1.437-1.324 1.568-2.168.195-1.27-.614-2.28-.649-2.322l-.55-.682-.343.809c-.024.05-.601 1.342-1.816 1.342h-.09a5.223 5.223 0 01-.241-.013c.043-.578-.062-1.47-.87-2.307-.972-1.009-2.163-1.16-2.787-1.16-.333 0-.554.042-.579.044l-.83.165.512.676c.402.522.767 1.483.335 1.986-.139.161-.423.29-.694.42-.56.258-1.324.618-1.324 1.531 0 .591.459 1.212 1.29 1.737 2.457 1.548 3.975 3.165 4.63 4.949 1.013 2.743-.309 4.31-1.594 5.134l-.575.37.505.464c.068.06.683.604 1.594.683.173.011.338.02.493.02a5.13 5.13 0 001.485-.214c-.12.21-.261.41-.42.593-.733.852-1.636 1.24-2.935 1.261l-.483.007-.037.485c-.005.098-.04.998.808 1.762.13.118.288.216.453.295-.577.52-1.162 1.425-1.275 2.974-.096 1.293-.404 1.773-.407 1.778l-.534.816.964.012c1.593 0 2.812-.438 3.656-1.311a4.145 4.145 0 00.954-1.616c.469.4 1.065.62 1.68.619.451 0 .828-.096.87-.105l.615-.164-.272-.575c-.02-.046-.533-1.2.019-2.849.238-.712.359-1.35.418-1.847.388.203.906.37 1.577.372 1.524 0 2.195-1.14 2.225-1.187l.3-.525-.556-.228c-1.815-.755-2.217-2.783-2.298-3.88.165.031.352.06.563.066l.094.003z" fill="#1A1919"/><path fill-rule="evenodd" clip-rule="evenodd" d="M37.865 12.474c.367 0 .797.126 1.2.545 1.273 1.293 2.457 1.366 2.457 1.366-.215.477-.838.896-1.484.896-.149 0-.3-.023-.447-.075-.876-.295-1.19-1.61-2.726-2.43 0 0 .427-.302 1-.302zm-1.25.77c.735.392 1.164.92 1.54 1.386.37.456.72.895 1.271 1.077.194.067.4.1.612.1.823 0 1.651-.506 1.965-1.206l.316-.7-.764-.046c-.036 0-1.018-.091-2.11-1.209-.45-.46-.995-.7-1.58-.7-.716 0-1.247.359-1.305.395l-.702.496.756.406zm.345 6.986v.027c-.444-3.582-3.04-6.169-5.93-7.741a18.533 18.533 0 00-.753-.381c.88.136 2.296.152 3.39-.797 0 0-1.674 1.232-5.1.112.947.617 2.791 1.487 4.475 2.896 4.206 3.704 1.197 7.316 1.197 7.316 1.513-1.58 1.575-3.273 1.13-4.657.796 1.328 1.304 2.939 1.226 4.926-.116 2.846-1.678 5.308-3.321 7.286-.79.959-.965 2.139-.965 2.139s.318-1.04 1.232-2.111c1.76-2.067 3.267-4.211 3.464-7.303.182.562.933 2.12 2.122 2.708 0 0-1.495-.903-2.167-4.42zM14.074 33.782c-4.385 0-4.273-3.766-4.273-3.766s-.307 1.116-1.527 1.406c-.15.037-.303.055-.456.054-.393 0-.735-.093-.735-.093s.639-1.353.003-3.245c-.525-1.57-.44-2.736-.44-2.736s-.59.895-2.055.904h-.015c-1.218 0-1.75-.927-1.75-.927 2.921-1.216 2.635-5.138 2.635-5.138s-.381.284-1.12.311h-.077c-1.612 0-2.159-1.727-2.159-1.727h.034c.298 0 2.69-.07 4.38-2.225 1.115-1.417 2.03-2.663 3.83-3.152l.181-.033.038-.181c.05-.275-.138-.535-.566-.813-2.488-1.633-.799-3.715-.799-3.715s.707 1.664 2.302 1.664h.115c.18-.01.357-.018.531-.055l.293-.057s-.455-1.235.642-2.369c.825-.857 1.826-1.002 2.405-1.002.294 0 .475.038.475.038-.547.72-.944 1.914-.311 2.651.55.634 1.887.664 1.887 1.607 0 .401-.373.867-1.041 1.287-2.015 1.27-4.014 2.956-4.845 5.215-1.037 2.818.134 4.688 1.805 5.762 0 0-.526.483-1.286.544a4.787 4.787 0 01-.448.022c-1.602 0-2.431-.753-2.431-.753s.138 1.04.967 2.008c.774.892 1.784 1.417 3.326 1.439 0 0 .05.716-.633 1.337-.438.393-1.446.52-1.446.52s1.89.383 2.098 3.177c.114 1.515.497 2.04.497 2.04h-.031zm.465-.3c-.001-.006-.307-.486-.405-1.779-.116-1.55-.7-2.455-1.279-2.974a1.82 1.82 0 00.453-.295c.849-.764.813-1.663.807-1.762l-.032-.485-.486-.007c-1.296-.02-2.2-.408-2.933-1.26a3.955 3.955 0 01-.42-.594c.404.123.898.215 1.483.215.156 0 .32-.01.492-.021a2.902 2.902 0 001.597-.681l.505-.466-.575-.37c-1.289-.825-2.606-2.39-1.594-5.134.655-1.784 2.169-3.4 4.63-4.95.832-.524 1.287-1.145 1.287-1.736 0-.913-.762-1.273-1.321-1.53-.273-.131-.557-.26-.694-.421-.433-.502-.07-1.464.334-1.986l.515-.676-.835-.165c-.023-.003-.243-.044-.578-.044-.622 0-1.812.152-2.782 1.16-.81.838-.916 1.73-.874 2.307a5.17 5.17 0 01-.24.014h-.09c-1.219 0-1.794-1.294-1.816-1.343l-.343-.809-.554.682c-.031.041-.843 1.053-.644 2.322.13.843.66 1.57 1.567 2.168.099.064.167.118.217.163-1.714.558-2.669 1.78-3.678 3.066l-.145.182C4.565 18.24 2.38 18.3 2.12 18.3l-.743-.024.226.71c.027.085.685 2.097 2.66 2.097l.095-.003a3.41 3.41 0 00.564-.067c-.081 1.097-.485 3.126-2.3 3.88l-.555.23.3.524a2.608 2.608 0 002.23 1.187 3.387 3.387 0 001.572-.37c.059.497.181 1.133.419 1.845.552 1.647.038 2.803.018 2.849l-.272.575.615.163c.042.011.42.106.869.106a2.575 2.575 0 001.68-.619c.168.516.456 1.1.954 1.616.847.871 2.065 1.311 3.656 1.311l.964-.012-.533-.816z" fill="#1A1919"/><path fill-rule="evenodd" clip-rule="evenodd" d="M5.28 13.02c.406-.42.835-.546 1.204-.546.568 0 .999.303.999.303-1.536.82-1.852 2.134-2.73 2.43-.143.05-.293.075-.444.074-.646 0-1.27-.418-1.483-.895 0 0 1.182-.073 2.454-1.366zm-.971 2.787c.21 0 .418-.032.614-.1.55-.182.9-.62 1.27-1.077.378-.465.803-.993 1.54-1.385l.757-.408-.705-.496c-.057-.036-.585-.393-1.301-.393-.587 0-1.132.24-1.58.699-1.094 1.119-2.075 1.209-2.11 1.21l-.762.045.311.7c.317.7 1.143 1.205 1.966 1.205zm3.444 6.125c-.08-1.988.427-3.598 1.224-4.926-.443 1.383-.383 3.076 1.132 4.658 0 0-3.012-3.614 1.197-7.316 1.684-1.41 3.525-2.28 4.472-2.898-3.425 1.12-5.098-.113-5.098-.113 1.094.95 2.51.936 3.39.797-.239.117-.488.238-.754.382-2.89 1.572-5.484 4.16-5.93 7.741v-.026c-.671 3.517-2.165 4.42-2.165 4.42 1.19-.589 1.937-2.148 2.12-2.709.198 3.092 1.704 5.238 3.464 7.303.914 1.07 1.235 2.111 1.235 2.111s-.177-1.179-.97-2.138c-1.64-1.978-3.202-4.44-3.317-7.286zm13.43-7.248v.71c.245-.298.716-.237.716-.237v1.024s-.015.504-.194.722h1.023c-.178-.218-.195-.722-.195-.722v-1.024s.473-.061.716.238v-.711h-2.067.001zm-.439-4.213c.327.26.517.304.522.307l.127.06v-.67l-1.2-.505s.01.388.551.808zm2.857 0c.543-.42.554-.808.554-.808l-1.202.506v.67l.127-.06c.006-.004.194-.048.521-.308z" fill="#1A1919"/><path fill-rule="evenodd" clip-rule="evenodd" d="M22.173 8.69l-2.895-1.146c.246-.584 1.38-1.08 2.895-1.081 1.515 0 2.65.497 2.896 1.081L22.173 8.69zm2.158 3.59l-1.946 1.027V9.146l2.64-.898-.694 4.03v.002zm1.205 1.104l.89.517h.012l.224.13a2.617 2.617 0 00-1.209.722l-.034.035a4.28 4.28 0 00-.219.252l-.04.053c-.07.088-.135.18-.196.274l-.034.048a6.467 6.467 0 00-.213.35c-.636 1.093-1.646 1.747-2.544 1.749-.899-.002-1.91-.656-2.543-1.75a7.475 7.475 0 00-.211-.343l-.042-.062a7.003 7.003 0 00-.187-.263c-.016-.023-.031-.04-.047-.06a5.096 5.096 0 00-.212-.246c-.015-.011-.025-.026-.039-.04a2.621 2.621 0 00-1.209-.719l.227-.13h.009l.892-.517.914-.526 2.443 1.333.005-.005.007.005 2.442-1.333.914.526zm3.51 3.7c-.2.526-.364 1.096-.364 1.663l.002 3.66c-.763-.127-.855-.95-.857-.987l-.014-.167-.165-.015a1.165 1.165 0 01-.736-.352c-.376-.376-.376-.983-.376-.989-.004.031-.41.6.06 1.224.199.264.488.426.86.49.087.456.427 1.101 1.228 1.2v1.79h-2.253c-1.039-.578-.6-1.596-.578-1.64l.087-.194-.198-.075c-1.126-.418-.815-1.543-.8-1.592l.046-.164-.155-.071c-.928-.432-.802-1.594-.79-1.642-.286.232-.389.704-.192 1.17-.107.122-.25.269-.406.43a1.264 1.264 0 01-.993-1.172l-.001-.136-.127-.048c-.375-.139-.633-.35-.761-.63-.142-.31-.092-.635-.053-.793.216.045.435.068.656.07h.015c.112 0 .221-.008.33-.018.6-.06 1.27-.318 1.97-1.013h4.566zm-2.815 15.951l.252-1.313.04-.242c.156.06.321.093.488.096.383 0 .607-.204.756-.375l.192-.226-.157-.247a24.4 24.4 0 00-.632-.956 5.094 5.094 0 01-.153-.228c-.306-.458-.689-1.032-1.455-1.032l-.068.003c-.11.006-.22.028-.324.066a1.747 1.747 0 00-.747-.171 2.32 2.32 0 00-.76.147c-.052.015-.098.032-.134.039l-1.431-.141a.41.41 0 01-.148-.123v-.008l.31-.123c-.087-1.035-1.08-1.671-1.631-1.887a.583.583 0 00-.162-.291l-.307-.292-.27.324-.133.166-2.007-.825 1.305 1.64-.514.782c-.19.2.02.402.02.402l.531.367.552-.206c.018 0 .035.004.054.007-.026.084-.061.413-.084.504l-.957-.188-1.005.57a1.19 1.19 0 00-.396 1.44l.11.244.16.345.351-.145.014-.007c-.127.405-.075.79.15 1.043l.214.268.284.36.312-.335c.092-.093.39-.426.481-.713l.067-.218-.151-.167-.026-.031.171-.283 1.25.295.281.065.15-.248.081-.134c.015-.03.019-.034.077-.034a.56.56 0 01.136.016 7.02 7.02 0 001.293.133c.373 0 .598-.014.864-.103 0 0 .67.762.694.793l-.411 1.27-.019.076c-.777.063-1.156.234-1.614.693-.665-.66-1.135-.731-2.921-.731-2.14 0-3.59-1.255-3.59-3.263v-4.905h13.02l.002 4.905c0 1.627-.953 2.762-2.455 3.132zm-8.019-2.773l.068.17c-.046.147-.554.357-.554.357l-.108-.24a.801.801 0 01.262-.955l.823-.502.874.185a.773.773 0 00.149.486l-.915-.176-.548.38c-.092.064-.1.184-.05.295zm7.88 1.385l-.28 1.468c-.18.025-.37.04-.563.046l.295-1.409c.088-.42-1.034-.55-1.59-1.374-.271.305-.78.396-1.293.396a6.56 6.56 0 01-1.22-.131 1.34 1.34 0 00-.208-.02c-.165 0-.314.05-.418.225l-.081.139-1.531-.362-.381.632c-.053.103-.058.188.029.284l.104.113c-.072.223-.39.561-.39.561l-.228-.285c-.18-.2-.15-.57.037-.912l.607-1.028 1.297.189-.201-.461c-.271-.609.142-1.382.186-1.828-.015.135-.139.165-.282.165-.132 0-.277-.024-.374-.024-.038 0-.072.003-.089.016l-.351.214-.277-.245c-.034-.046-.044-.158.037-.241l.642-.721-.758-.887 1.06.535.325-.394c.089.088.05.315.05.315.33.01 1.26.523 1.309 1.724.003.037.003.078.003.118l.025.04c.066.09.247.323.477.343l1.466.146h.006c.161 0 .481-.19.891-.19.225 0 .474.058.74.226 0 0 .133-.107.349-.118.016-.002.035-.002.05-.002.658 0 .931.595 1.285 1.09.265.377.62.936.62.936-.13.156-.253.242-.457.242a.94.94 0 01-.19-.018c-.704-.13-.807-1.582-1.209-1.697a.244.244 0 00-.064-.008c-.13 0-.186.115-.186.115.184.495.076.695.275 1.077.147.283.41.515.518.626 0 0-.029.215-.061.375zm-1.349 1.525c-.196 0-.379.002-.543.009l.43-1.34c.067-.187-.273-.426-.412-.636.211.134.76.427 1.024.543a70.35 70.35 0 00-.499 1.424zm-6.388-12.08l.061-2.33.522-.554.328.688-.646 2.237-.266-.04.001-.002zm.376.722a.917.917 0 00.346.366 4.28 4.28 0 01-.064.66 1.556 1.556 0 01-.038.146c-.007.03-.016.054-.022.074-.16 0-.473-.02-.728-.113-.284-.104-.708-.626-.61-1.201.123-.075.407-.236.673-.236.205 0 .344.097.443.304zm6.045.626c-.4.297-1.435 1.053-1.81 1.316l-3.612-.651.026-.096a3.21 3.21 0 00.098-.746l3.035.049.058-.058c.046-.046 1.008-.978 1.498-1.513.116.147.262.285.454.408-.065.358-.039.864.253 1.29zm-4.91-5.357c.435.432.859.701 1.263.849-.052.208-.121.64.073 1.068.159.346.448.612.864.79a1.64 1.64 0 001.063 1.354c-.328.33-.647.642-.774.767l-3.03-.047a.543.543 0 01-.238-.222c-.005-.015-.016-.023-.023-.04l.496.082h.03a.195.195 0 00.195-.163.198.198 0 00-.163-.228l-.608-.097.674-2.333-.639-1.348-1.024 1.085-.062 2.426-.689-.11c-.106-.02-.207.059-.227.166a.201.201 0 00.165.227l.289.044a2.356 2.356 0 00-.18.112l-.058.042-.016.071c-.168.682.211 1.328.62 1.617l-.015.087a.387.387 0 00.07.292.381.381 0 00.317.164.387.387 0 00.375-.303c.152.018.292.022.387.022h.082l3.973.72.068-.046c.317-.221 1.524-1.102 1.92-1.394.109.093.23.179.377.249-.128.43-.136 1.092.37 1.617H15.663v-5.855c0-.568-.165-1.138-.362-1.665h4.564zm-.548-8.833l2.643.897v4.16l-1.945-1.028-.698-4.03zm6.448-.502c0-1.015-1.705-1.929-3.587-1.929h-.012c-1.882 0-3.587.914-3.587 1.929l.037.25.752 4.321-.755.439-1.953 1.143h.007s-.438.226-.643.365c-.743.517-.902 1.272-.47 1.584.106-.615.593-1.258 1.501-1.258.656 0 1.155.339 1.56.846.103.128.201.265.292.412.114.186.228.35.34.507h-5.032c.37.745.721 1.533.721 2.39v11.157c0 2.7 2.073 3.988 4.316 3.988 1.733 0 1.966-.079 2.922.875.951-.954 1.186-.875 2.92-.875 2.244 0 4.313-1.289 4.313-3.988V18.747c0-.857.352-1.645.724-2.39h-5.035c.114-.157.227-.321.34-.507.092-.147.19-.284.292-.412.407-.51.905-.847 1.561-.847.909 0 1.394.644 1.501 1.26.432-.313.276-1.068-.473-1.585-.199-.139-.64-.365-.64-.365h.008l-1.957-1.143-.75-.439.75-4.322.037-.25z" fill="#1A1919"/><path d="M58.102 26.343h3.464v-8.06h4.757v-2.932H53.345v2.932h4.757v8.06zM76.83 15.351l-5.773 6.396v-6.396h-3.35v10.992h2.957l5.773-6.397v6.397h3.349V15.351H76.83zm8.841 6.905h5.381v4.087h3.349V15.351h-3.349v4.018h-5.38V15.35h-3.35v10.992h3.35v-4.087zm18.055 4.087c.762 0 1.455-.07 2.102-.254 1.732-.485 2.863-1.893 2.863-3.81 0-1.825-.97-3.095-2.517-3.672-.739-.277-1.617-.3-2.448-.3h-3.441V15.35h-3.349v10.992h6.79zm-3.441-5.45h2.864c.462 0 .9 0 1.293.139.554.184.877.646.877 1.2 0 .578-.323 1.063-.854 1.294-.369.161-.739.161-1.316.161h-2.864v-2.794zm13.487 1.293h.924l3.995 4.157h4.457l-5.566-5.727 5.358-5.265h-4.203l-4.041 4.133h-.924v-4.133h-3.349v10.992h3.349v-4.157z" fill="#000"/><path d="M130.039 15.05c-4.503 0-7.205 2.54-7.205 5.82 0 3.279 2.702 5.82 7.205 5.82 4.48 0 7.182-2.541 7.182-5.82 0-3.28-2.702-5.82-7.182-5.82zm0 8.96c-2.24 0-3.672-1.34-3.672-3.14 0-1.802 1.432-3.118 3.672-3.118 2.217 0 3.672 1.316 3.672 3.117 0 1.802-1.455 3.141-3.672 3.141zm18.334-8.175v-1.108h-3.349v1.108c-4.203.092-6.72 1.87-6.72 5.011s2.517 4.78 6.72 4.873v1.109h3.349v-1.109c4.226-.092 6.743-1.732 6.743-4.873 0-3.14-2.517-4.919-6.743-5.01zm-3.349 7.529c-2.309-.093-3.325-1.04-3.325-2.518 0-1.478 1.016-2.54 3.325-2.632v5.15zm3.349 0v-5.15c2.332.092 3.325 1.154 3.325 2.632 0 1.478-.993 2.425-3.325 2.518zm17.884-7.529v-1.108h-3.349v1.108c-4.203.092-6.72 1.87-6.72 5.011s2.517 4.78 6.72 4.873v1.109h3.349v-1.109c4.226-.092 6.743-1.732 6.743-4.873 0-3.14-2.517-4.919-6.743-5.01zm-3.349 7.529c-2.309-.093-3.325-1.04-3.325-2.518 0-1.478 1.016-2.54 3.325-2.632v5.15zm3.349 0v-5.15c2.332.092 3.325 1.154 3.325 2.632 0 1.478-.993 2.425-3.325 2.518z" fill="#000"/></svg>