<svg width="48" height="33" fill="none" xmlns="http://www.w3.org/2000/svg"><path d="M31 16.5c0-8.284-6.718-15-15.001-15C7.715 1.5 1 8.216 1 16.5c0 8.285 6.715 15 14.999 15C24.282 31.5 31 24.785 31 16.5z" stroke="#005AFF" stroke-width="2" stroke-miterlimit="10" stroke-linecap="round" stroke-linejoin="round"/><path d="M28.004 30.962a14.99 14.99 0 003.995.538C40.282 31.5 47 24.785 47 16.5c0-8.284-6.718-15-15.001-15-1.384 0-2.727.188-4 .539" stroke="#005AFF" stroke-width="2" stroke-miterlimit="10" stroke-linecap="round" stroke-linejoin="round"/><path d="M20.004 30.962a14.99 14.99 0 003.995.538C32.282 31.5 39 24.785 39 16.5c0-8.284-6.718-15-15.001-15-1.384 0-2.727.188-4 .539" stroke="#005AFF" stroke-width="2" stroke-miterlimit="10" stroke-linecap="round" stroke-linejoin="round"/><path d="M12.25 24.5V9.833h5.25a3.667 3.667 0 010 7.334H9M9 21.5h7" stroke="#005AFF" stroke-width="2" stroke-miterlimit="10" stroke-linecap="round" stroke-linejoin="round"/></svg>