<svg width="36" height="49" fill="none" xmlns="http://www.w3.org/2000/svg"><path d="M35 29.635c0 2.066-7.445 3.74-16.63 3.74-9.184 0-16.629-1.674-16.629-3.74" stroke="#37455C" stroke-width="2" stroke-miterlimit="10" stroke-linecap="round" stroke-linejoin="round"/><path d="M35 1.874C35-.193 1.741 6.89 1.741 8.957v20.678M35 1.873v27.762M1.741 8.956C1.741 13.47 35 8.363 35 1.873M31.808 44.59c0 1.669-6.016 3.022-13.437 3.022-7.421 0-13.437-1.353-13.437-3.022m0-12.752V44.59m26.874-12.758V44.59M8.636 42.523V39.13m4.867.342v-3.394m0 7.352v-1.002m9.693 1.002v-1.002m0-2.956v-3.394m4.824 6.445V39.13m-9.65 3.393V39.13" stroke="#37455C" stroke-width="2" stroke-miterlimit="10" stroke-linecap="round" stroke-linejoin="round"/></svg>