<svg version="1.0" xmlns="http://www.w3.org/2000/svg" width="3050.667" height="3050.667" viewBox="0 0 2288 2288"><path d="M293.5 689.1C174.8 698.1 87 747.2 38 832 .7 896.3-10.1 988.6 10.1 1069.3c26.5 105.5 105.5 178.6 220.6 204.1 50.8 11.3 110.9 13 169.8 5 43.7-6 92.3-21.7 126.7-41 22-12.4 48.4-32 52.1-38.6 1.6-3.1 1.7-10.9 1.7-122.9V956.3l-2.3-3.3c-1.2-1.9-3.8-4.3-5.7-5.4-3.5-2.1-4.1-2.1-138-2.1H300.5l-3.7 2.3c-2.2 1.3-4.5 4-5.8 6.6-2 4.3-2.1 5.3-1.8 52.4.3 46.8.4 48.1 2.4 50.8 1.1 1.5 3.3 3.7 4.8 4.8 2.7 2.1 4 2.1 72.9 2.6 68.2.5 70.3.6 73.7 2.5 2.1 1.2 4.4 3.9 5.8 6.5 2.1 4.2 2.2 5.6 2.2 26 0 27.9.4 27.1-16.5 35.5-19.5 9.8-41.6 15.8-67.4 18.4-13.4 1.4-50.4 1.4-62.9 0-68.6-7.5-117.4-39-140.6-90.7-13.9-31-18.5-69.4-13.1-108.9 9.3-67.5 53.5-115.1 121.8-131.3 22.9-5.4 32.7-6.4 62.2-6.5 45.7 0 71 4.9 101 19.7 10.8 5.4 12.5 5.9 17 5.5 4.3-.3 12.3-4.4 57.5-29.2 28.9-15.8 53.6-29.7 54.8-30.9 4-3.5 5.5-7.4 5-12.8-.6-6.2-3.4-9.1-17.8-19.2-46.9-32.9-105-52.2-179-59.6-14.5-1.5-64.9-2.1-79.5-.9zm562.8 10c-6 1.7-8.4 5.6-19 30.5-5.6 13.1-17.6 41.2-26.6 62.4-31.4 73.7-66 154.7-77.7 182-13.1 30.6-55 128.9-71.5 167.5-5.8 13.7-18.8 44.1-28.8 67.5-19.5 45.7-20 47.3-16.1 54.1 1.1 1.9 3.5 4.4 5.4 5.7l3.4 2.2 65.5-.2 65.6-.3 3.1-2.2c3.6-2.6 2.8-.9 23.5-47.2 8.7-19.5 16.9-36.5 18.1-37.9 5-5.4.3-5.2 116-5.2 100.2 0 107.5.1 110.7 1.8 1.9.9 4.3 2.8 5.3 4.2 1.5 2.1 16.3 34.5 30.8 67.5 5.3 11.9 7.3 15.1 11.2 17.5 3.2 1.9 5.2 2 67.6 2 52.5 0 64.9-.3 67.6-1.4 4.7-2 7.9-6.9 8.4-13 .3-4.7-.6-7.4-13.1-36.6-7.4-17.3-24.6-57.6-38.2-89.5-13.6-31.9-28-65.7-32-75-4-9.4-20.4-47.8-36.5-85.5s-32.5-76.2-36.5-85.5c-4-9.4-18.4-43.1-32-75-13.6-31.9-29-68.1-34.3-80.4-5.4-12.8-10.8-23.9-12.5-25.8-1.6-1.8-4.5-3.7-6.5-4.3-4.7-1.3-116.4-1.2-120.9.1zM924.4 906c2.3 1.1 4.8 3 5.7 4.3 1.5 2 9.3 22.2 34.4 88.7 5.3 14 11.4 30.1 13.6 35.7 2.1 5.6 3.9 11.8 3.9 13.8 0 4.4-3.1 10.2-6.8 13-2.6 1.9-4.5 2-57.3 2.3l-54.5.2-3.5-2.2c-4.4-3-8.2-10.2-7.5-14.5.2-1.7 4.1-12.7 8.6-24.5 4.5-11.7 13.8-35.9 20.7-53.8 20.1-52.6 21.5-56.1 24.2-59.2 4.8-5.8 11.6-7.2 18.5-3.8zm879-206.9c-4.1 1.2-9.1 6.9-9.9 11.1-.3 1.8-.5 27.2-.3 56.5.3 52.1.3 53.2 2.4 56 1.1 1.5 3.6 3.8 5.4 5l3.3 2.3H1942v134.2c.1 73.9.5 136.2.9 138.6 1.5 7.5-8.8.2 110.6 78.5 59.1 38.8 61.2 40.1 66.5 40.5 6.1.4 10.4-1.7 14.4-7.1 2-2.7 2.1-4 2.1-34.1v-31.3l-2.6-3.4c-1.5-1.9-11.5-9.2-23.3-16.9-71.6-46.8-83.6-55-85.6-58.2-1.9-3.1-2-5-2-30.9 0-27 .1-27.7 2.3-30.9 3.3-4.9 8.2-7.2 14.2-6.7 4.6.3 7.8 2.2 39.7 23.1 19.1 12.5 36.1 23.1 37.9 23.6 6.9 2 15.4-2.5 18.5-9.7 1.2-2.7 1.4-21 1.4-106.2V830l68.9-.2c67.8-.3 69-.3 71.8-2.4 1.5-1.1 3.8-4 5.1-6.4 2.2-4.4 2.2-4.4 2.2-57 0-52.5 0-52.6-2.2-57-1.7-3.3-3.5-5.1-6.8-6.8l-4.4-2.2-232.6.1c-136.8 0-233.8.5-235.6 1zm-516.8 2.1c-2.2 1.3-4.9 3.9-6 5.8l-2.1 3.5-.3 273.5-.2 273.5 2.2 4.5c1.3 2.5 3.8 5.5 5.7 6.7l3.4 2.3h58.9c65.1 0 63 .2 67.9-6.3l2.4-3.2.5-65.2c.5-63.8.5-65.2 2.6-67.9 1.1-1.5 3.3-3.7 4.8-4.8 2.6-2 4.2-2.1 40.9-2.4 29.9-.2 38.6 0 39.9 1 1.6 1.3 9.3 12.4 71.1 103l31.2 45.7 73.7-.2 73.7-.2 3.6-3.5c4-3.9 5.9-9.4 4.9-14.6-.4-2.4-6.7-11.8-19.8-29.7-10.5-14.4-33.9-46.4-52-71-18.2-24.9-33.2-46.3-33.7-48.2-1.3-4.4.3-10.4 3.7-14.4 1.4-1.7 7.1-6 12.7-9.7 46.1-30.1 72.4-73.8 80.2-132.9 5.9-45.4.3-94.2-15-130.4-25.5-60.1-78.9-97.9-157.5-111.6-27.3-4.8-27.2-4.8-164-5.2l-129.5-.3-3.9 2.2zm248.3 121.7c11.7 1.9 23.8 5.8 34.1 10.8 8 3.8 10.9 5.9 18.2 13.3 7.2 7.2 9.4 10.3 13.2 18.1 5.6 11.6 8.3 22.4 9.8 39.6 4.6 52.2-21.3 85.2-75.5 95.9-6.8 1.4-17.7 1.7-62 2.1l-53.7.5.2-85.4.3-85.3 2.4-3.9c1.5-2.3 4-4.6 6.5-5.7 3.9-1.9 6.5-1.9 51.6-1.6 30.2.3 50.2.9 54.9 1.6zm415.9 392.1c-2 1.1-4.7 3.6-6 5.7-2.3 3.8-2.3 4-2.3 35.3 0 31.1 0 31.6 2.3 35.2 1.7 2.8 9.1 8.1 31 22.4 80.9 53 78.2 51 80.3 55.9 1.9 4.2 2 6.4 1.7 30.9-.3 24.9-.4 26.6-2.4 29.3-2.4 3.4-9.8 7.3-13.7 7.3-4.1 0-7.3-1.9-43.2-25.4-18-11.9-34.4-22-36.4-22.6-6.6-1.8-14.3 1.8-17.9 8.3-1.5 2.9-1.7 7.6-1.7 50.7 0 37.8.3 48.2 1.4 50.7 1.4 3.5 81.5 79 88 83 4.3 2.7 10.3 2.9 14.8.5 5.5-3 87.3-80.1 88.9-83.8 1.2-2.8 1.4-17 1.4-84.4 0-88.1.2-84.8-5.6-90.1-1.6-1.5-19.5-13.6-39.9-26.9-41-26.8-60.5-39.6-97.3-63.8-13.6-8.9-26.4-17.2-28.4-18.2-4.7-2.5-10.2-2.5-15 0z"/></svg>