<svg width="34" height="32" fill="none" xmlns="http://www.w3.org/2000/svg"><path d="M20.091 20.091l4.205 5.569s1.583 2.663 3.85 1.675c1.316-.574 1.519-1.79 1.519-2.472 0-1.085-.71-2.045-.71-2.045L19.41 9.182s-1.387 1.275-3.665 2.358c-4.9 2.33-6.563.37-6.563-1.676 0-.975 2.314-1.547 5.682-4.915C17.984 1.83 18.369 1 20.09 1h2.015c3.424 0 4.163.648 6.098 1.938 3.12 2.08 4.16 2.835 4.16 2.835v15.682h-4.09" stroke="#fff" stroke-width="2" stroke-miterlimit="10" stroke-linecap="round" stroke-linejoin="round"/><path d="M24.779 26.398c.053.553.34 1.96-.959 2.813-2.186 1.434-3.729-.938-3.729-.938l-4.773-6.818m4.496 6.701c-.132.5-.355 1.322-1.278 1.779-2.067 1.023-3.217-.298-3.217-.298l-4.773-6.819" stroke="#fff" stroke-width="2" stroke-miterlimit="10" stroke-linecap="round" stroke-linejoin="round"/><path d="M15.319 3.727c-6.24 0-7.5 2.045-10.228 2.045h-4.09v15.682h1.363c1.82 0 3.569 2.889 3.569 2.889l3.964 5.633s1.149 1.82 3.315.607c.806-.451 1.21-.984 1.38-1.493" stroke="#fff" stroke-width="2" stroke-miterlimit="10" stroke-linecap="round" stroke-linejoin="round"/></svg>