<svg width="34" height="32" fill="none" xmlns="http://www.w3.org/2000/svg"><path d="M28.87 26.835a15.803 15.803 0 002.093-3.261 15.681 15.681 0 001.552-6.817 15.71 15.71 0 00-.898-5.206C29.466 5.411 23.634 1 16.758 1 9.871 1 4.031 5.426 1.888 11.583A15.697 15.697 0 001 16.758c0 2.428.553 4.726 1.534 6.78a15.844 15.844 0 002.111 3.299" stroke="#37455C" stroke-width="2" stroke-linecap="round" stroke-linejoin="round"/><path d="M22.806 29.105c0 .749-.606 1.355-1.355 1.355h-9.386a1.355 1.355 0 01-1.355-1.355V26.44c0-.749.606-1.355 1.355-1.355h9.386c.75 0 1.355.606 1.355 1.355v2.666zm9.71-11.788H28.41m-23.134 0H1M6.806 22.4L3.11 24.531M24.59 3.087L22.563 6.6M16.758 1v4.089M8.925 3.087l2.071 3.587M3.168 8.808l3.638 2.1m20.032 11.566l3.615 2.074m-11.33-6.223a2.572 2.572 0 11-4.73-2.018 2.572 2.572 0 014.73 2.018zm-.205-2.404l9.1-5.875" stroke="#37455C" stroke-width="2" stroke-miterlimit="10" stroke-linecap="round" stroke-linejoin="round"/></svg>