<svg width="30" height="43" fill="none" xmlns="http://www.w3.org/2000/svg"><path d="M6.643 41.779a5.574 5.574 0 100-11.148 5.574 5.574 0 000 11.148z" stroke="#fff" stroke-width="2" stroke-miterlimit="10" stroke-linecap="round" stroke-linejoin="round"/><path d="M6.643 38.04a1.834 1.834 0 100-3.668 1.834 1.834 0 000 3.668z" stroke="#fff" stroke-width="2" stroke-miterlimit="10" stroke-linecap="round" stroke-linejoin="round"/><path d="M12.217 34.967l5.438-3.186v-4.138H1V36.5m20.118 3.88V2.4a1.4 1.4 0 011.4-1.4h1.45a1.4 1.4 0 011.4 1.4v39.38h-2.85a1.4 1.4 0 01-1.4-1.4zm-3.463-8.599h3.463m-7.715-4.139l7.715-5.42M10 27.5V23H1v4.5m0-4.566L4.66 18h3.657v4.934m17.053 1.193l3.588 5.786v11.866H25.37" stroke="#fff" stroke-width="2" stroke-miterlimit="10" stroke-linecap="round" stroke-linejoin="round"/></svg>