<svg width="35" height="25" fill="none" xmlns="http://www.w3.org/2000/svg"><path d="M5.906 20.356h4.689M5.906 15.87h8.815m18.409 5.992a1.84 1.84 0 01-1.836 1.846H2.837A1.842 1.842 0 011 21.862V3.212c0-1.019.822-1.846 1.837-1.846h28.457c1.014 0 1.836.827 1.836 1.847v18.649z" stroke="#fff" stroke-width="2" stroke-linecap="round" stroke-linejoin="round"/><path d="M33.13 5.818H1v5.565h32.13V5.818z" stroke="#fff" stroke-width="2" stroke-miterlimit="10" stroke-linecap="round" stroke-linejoin="round"/><path d="M26.039 15.852c-.694 0-1.306.32-1.719.813a2.238 2.238 0 00-1.718-.813 2.252 2.252 0 000 4.503c.693 0 1.305-.319 1.718-.812a2.238 2.238 0 001.719.812 2.252 2.252 0 000-4.503z" stroke="#fff" stroke-width="2" stroke-linecap="round" stroke-linejoin="round"/></svg>