<svg width="120" height="82" fill="none" xmlns="http://www.w3.org/2000/svg"><path d="M6.597 82c-3.312 0-5.709-3.163-4.813-6.352l9.35-33.296a5 5 0 000-2.703L1.783 6.352C.888 3.163 3.285.001 6.597.001h97.689a5 5 0 014.8 3.599l10.505 36a4.999 4.999 0 010 2.8l-10.505 36a5 5 0 01-4.8 3.6H6.597z" fill="#fff"/><path d="M45.639 40.788c0 1.595.27 2.852.757 4.283a2.418 2.418 0 00.986 4.625l.042-.001c.5 6.371 7.743 11.75 12.327 11.75 4.704 0 11.826-5.377 12.326-11.75l.042.001a2.419 2.419 0 00.987-4.625c.488-1.43.757-2.688.757-4.285" stroke="#37455C" stroke-width="2" stroke-linecap="round" stroke-linejoin="round"/><path d="M50.074 41.986l-.348 4.023s-1.32-1.823-3.33-.94m23.072-3.152l.353 4.091s1.32-1.822 3.33-.938" stroke="#37455C" stroke-width="2" stroke-miterlimit="10" stroke-linecap="round" stroke-linejoin="round"/><path d="M54.722 23.494c-5.367 1.5-8.672 5.79-9.757 11.131A2.974 2.974 0 0042 37.59c0 1.631 1.259 2.419 2.965 2.965 15.243 5.37 29.57 0 29.57 0 1.63-.491 2.965-1.334 2.965-2.965a2.974 2.974 0 00-2.965-2.965c-1.083-5.34-4.333-9.631-9.699-11.13" stroke="#37455C" stroke-width="2" stroke-miterlimit="10" stroke-linecap="round" stroke-linejoin="round"/><path d="M61.405 34.163h-3.25a3.432 3.432 0 01-3.433-3.433v-7.297A3.432 3.432 0 0158.154 20h3.251a3.432 3.432 0 013.433 3.433v7.297a3.433 3.433 0 01-3.433 3.433z" stroke="#37455C" stroke-width="2" stroke-miterlimit="10" stroke-linecap="round" stroke-linejoin="round"/><path d="M57.965 54.537h3.658" stroke="#37455C" stroke-width="2" stroke-miterlimit="3.864" stroke-linecap="round" stroke-linejoin="round"/><path d="M62.406 42.996s-1.592.415-1.592 2.521c0 2.65 2.953 5.04 5.264 5.04 2.31 0 3.698-1.403 3.543-4.469-.154-3.066-2.619-3.092-2.619-3.092h-14.56s-2.465.026-2.62 3.092c-.154 3.066 1.234 4.47 3.544 4.47 2.312 0 5.264-2.392 5.264-5.04 0-2.105-1.592-2.522-1.592-2.522" stroke="#37455C" stroke-width="2" stroke-miterlimit="10" stroke-linecap="round" stroke-linejoin="round"/></svg>