<svg width="120" height="82" fill="none" xmlns="http://www.w3.org/2000/svg"><path d="M6.597 82c-3.312 0-5.709-3.163-4.813-6.352l9.35-33.296a5 5 0 000-2.703L1.783 6.352C.888 3.163 3.285.001 6.597.001h97.689a5 5 0 014.8 3.599l10.505 36a4.999 4.999 0 010 2.8l-10.505 36a5 5 0 01-4.8 3.6H6.597z" fill="#fff"/><path d="M37.983 57.65a5.272 5.272 0 100-10.545 5.272 5.272 0 000 10.544zm28.819 0a5.272 5.272 0 100-10.545 5.272 5.272 0 000 10.544z" stroke="#37455C" stroke-width="2" stroke-miterlimit="10" stroke-linecap="round" stroke-linejoin="round"/><path d="M77.345 57.65a5.272 5.272 0 100-10.545 5.272 5.272 0 000 10.544zm-34.09-6.444h18.407" stroke="#37455C" stroke-width="2" stroke-miterlimit="10" stroke-linecap="round" stroke-linejoin="round"/><path d="M82.617 51.206l6.91-3.013V44.28H40.72V32.121h-8.78l-3.759 8.685v9.914h4.724m57.27-11.827l-51.112-9.621a1.324 1.324 0 01-1.056-1.548l.253-1.348a1.324 1.324 0 011.548-1.056l51.112 9.621c.72.136 1.192.828 1.057 1.548l-.253 1.348a1.328 1.328 0 01-1.549 1.056zm-29.236-5.504v10.89" stroke="#37455C" stroke-width="2" stroke-miterlimit="10" stroke-linecap="round" stroke-linejoin="round"/><path d="M40.72 36.295h3.342l2.788 7.984m14.089-6.945h4.875l2.183 6.945m21.53.001v-5.51m-5.788 5.509v-6.651m-3.222 6.651v-3.993H71.06v3.993m-24.21.001v6.926m8.833-6.926v6.926" stroke="#37455C" stroke-width="2" stroke-miterlimit="10" stroke-linecap="round" stroke-linejoin="round"/></svg>