<svg width="120" height="82" fill="none" xmlns="http://www.w3.org/2000/svg"><path d="M6.597 82c-3.312 0-5.709-3.163-4.813-6.352l9.35-33.296a5 5 0 000-2.703L1.783 6.352C.888 3.163 3.285.001 6.597.001h97.689a5 5 0 014.8 3.599l10.505 36a4.999 4.999 0 010 2.8l-10.505 36a5 5 0 01-4.8 3.6H6.597z" fill="#fff"/><path d="M73.708 51.466a17.406 17.406 0 002.306-3.594 17.278 17.278 0 001.71-7.51c0-2.013-.36-3.937-.989-5.736C74.365 27.86 67.939 23 60.363 23c-7.589 0-14.023 4.876-16.385 11.66A17.294 17.294 0 0043 40.364c0 2.675.61 5.207 1.69 7.47a17.458 17.458 0 002.327 3.635" stroke="#37455C" stroke-width="2" stroke-linecap="round" stroke-linejoin="round"/><path d="M67.027 53.967c0 .825-.668 1.493-1.493 1.493H55.192a1.493 1.493 0 01-1.493-1.493v-2.938c0-.825.668-1.493 1.493-1.493h10.342c.825 0 1.493.668 1.493 1.493v2.938zm10.698-12.989H73.2m-25.489 0H43m6.397 5.602l-4.071 2.35M68.993 25.3l-2.236 3.872M60.363 23v4.505m-8.63-2.205l2.281 3.953m-8.625 2.349l4.008 2.315M71.469 46.66l3.984 2.285M62.968 42.09a2.834 2.834 0 11-5.212-2.225 2.834 2.834 0 015.212 2.224zm-.226-2.65l10.027-6.473" stroke="#37455C" stroke-width="2" stroke-miterlimit="10" stroke-linecap="round" stroke-linejoin="round"/></svg>