<svg width="120" height="82" fill="none" xmlns="http://www.w3.org/2000/svg"><path d="M6.597 82c-3.312 0-5.709-3.163-4.813-6.352l9.35-33.296a5 5 0 000-2.703L1.783 6.352C.888 3.163 3.285.001 6.597.001h97.689a5 5 0 014.8 3.599l10.505 36a4.999 4.999 0 010 2.8l-10.505 36a5 5 0 01-4.8 3.6H6.597z" fill="#fff"/><path d="M50.608 34.604s.854-4.833 2.985-4.909c2.131-.076 4.782 2.532 5.702 1.074.922-1.458 2.593-2.071 5.99-2.454 3.4-.385 1.96-2.992 4.09-2.148 2.132.845 6.106 7.057 6.278 8.438m-2.607 18.417c0 1.856 1.669 3.359 3.727 3.359s3.727-1.505 3.727-3.359-1.669-3.358-3.727-3.358c-2.06 0-3.727 1.504-3.727 3.358z" stroke="#37455C" stroke-width="2" stroke-miterlimit="10" stroke-linecap="round" stroke-linejoin="round"/><path d="M40 34.605h4.175l7.541 21.778h2.548l3.626-7.322" stroke="#37455C" stroke-width="2" stroke-linecap="round" stroke-linejoin="round"/><path d="M47.585 44.452s22.57 15.836 31.612-7.166H45.104" stroke="#37455C" stroke-width="2" stroke-miterlimit="10" stroke-linecap="round" stroke-linejoin="round"/></svg>