<svg width="120" height="82" fill="none" xmlns="http://www.w3.org/2000/svg"><path d="M6.597 82c-3.312 0-5.709-3.163-4.813-6.352l9.35-33.296a5 5 0 000-2.703L1.783 6.352C.888 3.163 3.285.001 6.597.001h97.689a5 5 0 014.8 3.599l10.505 36a4.999 4.999 0 010 2.8l-10.505 36a5 5 0 01-4.8 3.6H6.597z" fill="#fff"/><path d="M70.262 46.779c-8.858 0-16.039-7.181-16.039-16.04 0-2.026.391-3.956 1.077-5.739C49.28 27.31 45 33.129 45 39.96 45 48.82 52.18 56 61.04 56c6.831 0 12.65-4.28 14.963-10.3a15.93 15.93 0 01-5.74 1.078zm-3.27-18.399h8.482l-8.482 7.397h8.482" stroke="#37455C" stroke-width="2" stroke-miterlimit="10" stroke-linecap="round" stroke-linejoin="round"/></svg>