<svg width="205" height="82" fill="none" xmlns="http://www.w3.org/2000/svg"><path d="M75.14 38.1v-3.64h.952c.83-1.643 1.246-3.934 1.246-6.874V26.2h6.832v8.26h1.218l-.238 3.64h-1.428V36H76.82l-.168 2.1H75.14zm2.786-3.64h4.522v-6.706H78.99v1.12c0 2.287-.355 4.149-1.064 5.586zm12.316 1.708c-1.12 0-2.053-.373-2.8-1.12-.747-.747-1.12-1.657-1.12-2.73s.378-1.983 1.134-2.73c.756-.756 1.694-1.134 2.814-1.134s2.053.373 2.8 1.12c.756.747 1.134 1.661 1.134 2.744 0 1.064-.378 1.974-1.134 2.73-.756.747-1.699 1.12-2.828 1.12zm.028-1.47c.672 0 1.213-.229 1.624-.686.41-.457.616-1.022.616-1.694 0-.663-.215-1.223-.644-1.68-.43-.467-.97-.7-1.624-.7-.663 0-1.2.229-1.61.686-.41.457-.616 1.022-.616 1.694 0 .653.215 1.213.644 1.68.43.467.966.7 1.61.7zm13.203 1.442c-1.083 0-1.979-.261-2.688-.784-.7-.523-1.05-1.204-1.05-2.044 0-1.101.588-1.9 1.764-2.394-.952-.504-1.428-1.241-1.428-2.212 0-.756.322-1.386.966-1.89.644-.504 1.456-.756 2.436-.756s1.792.252 2.436.756c.644.504.966 1.143.966 1.918 0 .952-.476 1.68-1.428 2.184 1.176.541 1.764 1.335 1.764 2.38 0 .859-.35 1.55-1.05 2.072-.7.513-1.596.77-2.688.77zm-1.26-6.202c.336.27.756.406 1.26.406s.919-.135 1.246-.406c.336-.28.504-.635.504-1.064 0-.383-.164-.705-.49-.966-.327-.27-.747-.406-1.26-.406-.514 0-.934.135-1.26.406-.327.261-.49.588-.49.98 0 .43.163.78.49 1.05zm-.238 4.34c.373.28.872.42 1.498.42.625 0 1.124-.14 1.498-.42.373-.29.56-.649.56-1.078 0-.439-.196-.793-.588-1.064-.392-.28-.882-.42-1.47-.42s-1.078.14-1.47.42c-.392.27-.588.635-.588 1.092 0 .41.186.76.56 1.05zm10.96 1.89c-1.269 0-2.296-.48-3.08-1.442-.784-.97-1.176-2.18-1.176-3.626 0-1.428.397-2.627 1.19-3.598.803-.98 1.834-1.47 3.094-1.47 1.26 0 2.282.485 3.066 1.456.793.97 1.19 2.175 1.19 3.612 0 1.428-.401 2.632-1.204 3.612-.793.97-1.82 1.456-3.08 1.456zm-1.792-2.562c.467.672 1.073 1.008 1.82 1.008.747 0 1.344-.331 1.792-.994.457-.672.686-1.512.686-2.52 0-.99-.233-1.82-.7-2.492-.467-.681-1.069-1.022-1.806-1.022-.747 0-1.349.336-1.806 1.008-.448.663-.672 1.498-.672 2.506 0 .99.229 1.825.686 2.506zM123.273 36v-7.392h1.68l2.31 3.43 2.324-3.43h1.68V36h-1.708v-4.928l-2.324 3.318-2.31-3.29V36h-1.652zm13.505.168c-1.082 0-1.988-.36-2.716-1.078-.718-.719-1.078-1.647-1.078-2.786 0-1.073.341-1.983 1.022-2.73.682-.747 1.545-1.12 2.59-1.12 1.12 0 1.988.383 2.604 1.148.626.756.938 1.699.938 2.828 0 .205-.009.364-.028.476h-5.432c.094.588.332 1.05.714 1.386.383.327.854.49 1.414.49.728 0 1.396-.294 2.002-.882l.994.882c-.765.924-1.773 1.386-3.024 1.386zm-2.114-4.382h3.794c-.056-.57-.247-1.036-.574-1.4-.326-.364-.76-.546-1.302-.546-.513 0-.942.182-1.288.546-.345.355-.555.821-.63 1.4zM143.421 36v-5.936h-2.38v-1.456h6.468v1.456h-2.38V36h-1.708zm5.432 2.24v-9.632h1.694v1.232c.653-.924 1.489-1.386 2.506-1.386.933 0 1.741.35 2.422 1.05.681.69 1.022 1.629 1.022 2.814 0 1.167-.341 2.1-1.022 2.8-.681.69-1.489 1.036-2.422 1.036-1.017 0-1.853-.434-2.506-1.302v3.388h-1.694zm3.808-3.556a1.95 1.95 0 001.498-.658c.411-.439.616-1.017.616-1.736 0-.7-.205-1.27-.616-1.708a1.976 1.976 0 00-1.498-.658c-.588 0-1.097.224-1.526.672-.42.448-.63 1.022-.63 1.722 0 .69.21 1.26.63 1.708.429.439.938.658 1.526.658zm9.085 1.484c-1.12 0-2.053-.373-2.8-1.12-.747-.747-1.12-1.657-1.12-2.73s.378-1.983 1.134-2.73c.756-.756 1.694-1.134 2.814-1.134s2.053.373 2.8 1.12c.756.747 1.134 1.661 1.134 2.744 0 1.064-.378 1.974-1.134 2.73-.756.747-1.699 1.12-2.828 1.12zm.028-1.47c.672 0 1.213-.229 1.624-.686.411-.457.616-1.022.616-1.694 0-.663-.215-1.223-.644-1.68-.429-.467-.971-.7-1.624-.7-.663 0-1.199.229-1.61.686-.411.457-.616 1.022-.616 1.694 0 .653.215 1.213.644 1.68.429.467.966.7 1.61.7zM167.433 36v-7.392h3.794c.737 0 1.325.168 1.764.504.448.327.672.775.672 1.344 0 .775-.397 1.34-1.19 1.694 1.017.29 1.526.905 1.526 1.848 0 .625-.247 1.115-.742 1.47-.485.355-1.148.532-1.988.532h-3.836zm1.666-1.344h1.918c.401 0 .709-.084.924-.252a.85.85 0 00.336-.7c0-.28-.117-.5-.35-.658-.224-.159-.555-.238-.994-.238h-1.834v1.848zm0-2.996h1.736c.345 0 .616-.084.812-.252a.825.825 0 00.294-.658.748.748 0 00-.266-.602c-.177-.159-.448-.238-.812-.238h-1.764v1.75zM78.584 53.168c-1.27 0-2.347-.378-3.234-1.134l.798-1.12c.69.588 1.465.882 2.324.882.392 0 .723-.093.994-.28.27-.196.406-.443.406-.742 0-.28-.13-.504-.392-.672-.261-.168-.63-.252-1.106-.252h-.91v-1.218h.91c.392 0 .705-.089.938-.266.243-.187.364-.42.364-.7 0-.252-.117-.453-.35-.602-.224-.159-.513-.238-.868-.238-.821 0-1.521.252-2.1.756l-.756-1.064c.812-.71 1.815-1.064 3.01-1.064.812 0 1.475.187 1.988.56.513.373.77.85.77 1.428 0 .784-.387 1.344-1.162 1.68.896.317 1.344.915 1.344 1.792 0 .635-.275 1.171-.826 1.61-.55.43-1.265.644-2.142.644zM89.512 53h-1.68v-.91c-.597.71-1.395 1.064-2.394 1.064-.737 0-1.363-.2-1.876-.602-.504-.41-.756-.98-.756-1.708 0-.793.275-1.395.826-1.806.55-.41 1.274-.616 2.17-.616.719 0 1.4.103 2.044.308v-.14c0-.513-.159-.905-.476-1.176-.308-.27-.756-.406-1.344-.406-.672 0-1.377.154-2.114.462l-.462-1.358a6.804 6.804 0 012.814-.616c1.073 0 1.88.27 2.422.812.55.541.826 1.311.826 2.31V53zm-1.638-2.674v-.42a4.641 4.641 0 00-1.694-.294c-.532 0-.947.103-1.246.308a.993.993 0 00-.448.868c0 .336.135.602.406.798.27.196.611.294 1.022.294.57 0 1.036-.145 1.4-.434.373-.29.56-.663.56-1.12zm6.996 4.452v-3.234h.798c.55-1.101.826-2.777.826-5.026v-.91h5.726v5.936h1.05l-.224 3.234h-1.414V53h-5.18l-.168 1.778H94.87zm2.534-3.234h3.122v-4.48H98.09v.98c0 1.372-.228 2.539-.686 3.5zm10.663 1.624c-1.082 0-1.988-.36-2.716-1.078-.718-.719-1.078-1.647-1.078-2.786 0-1.073.341-1.983 1.022-2.73.682-.747 1.545-1.12 2.59-1.12 1.12 0 1.988.383 2.604 1.148.626.756.938 1.699.938 2.828 0 .205-.009.364-.028.476h-5.432c.094.588.332 1.05.714 1.386.383.327.854.49 1.414.49.728 0 1.396-.294 2.002-.882l.994.882c-.765.924-1.773 1.386-3.024 1.386zm-2.114-4.382h3.794c-.056-.57-.247-1.036-.574-1.4-.326-.364-.76-.546-1.302-.546-.513 0-.942.182-1.288.546-.345.355-.555.821-.63 1.4zM113.128 53v-7.392h1.694v2.996h3.262v-2.996h1.694V53h-1.694v-2.982h-3.262V53h-1.694zm8.778 0v-7.392h1.694v2.59h1.694c.877 0 1.586.196 2.128.588.541.392.812.975.812 1.75 0 .765-.252 1.367-.756 1.806-.504.439-1.19.658-2.058.658h-3.514zm1.694-1.372h1.596c.429 0 .76-.093.994-.28.233-.187.35-.457.35-.812 0-.327-.122-.579-.364-.756-.234-.177-.57-.266-1.008-.266H123.6v2.114z" fill="#fff"/><path d="M6.83 82c-3.381 0-5.788-3.288-4.765-6.512L12.52 42.511a5 5 0 000-3.023L2.065 6.512C1.042 3.287 3.449 0 6.83 0h181.042a5 5 0 014.749 3.436l11.862 36a4.998 4.998 0 010 3.129l-11.862 36A5 5 0 01187.873 82H6.831z" fill="#37455C"/><path d="M42.462 59.188L56.83 39.02c.395-.571.136-.768-.58-.768h-6.78c-.715 0-1.205-.681-1.088-1.358l2.33-13.818" stroke="#fff" stroke-width="2" stroke-miterlimit="10" stroke-linecap="round" stroke-linejoin="round"/><path d="M50.712 23L35.22 42.71c-.435.547-.204 1.05.51 1.05h7.503c.716 0 1.257.367 1.2 1.053l-1.972 14.451" stroke="#fff" stroke-width="2" stroke-miterlimit="10" stroke-linecap="round" stroke-linejoin="round"/></svg>