<svg width="64" height="82" fill="none" xmlns="http://www.w3.org/2000/svg"><path d="M5.813 82a5 5 0 01-5-5V5a5 5 0 015-5H47.54a5 5 0 014.799 3.596l10.53 36c.27.917.27 1.891 0 2.808l-10.53 36a5 5 0 01-4.8 3.596H5.814z" fill="#005AFF"/><path d="M14.445 38.788c0 1.595.27 2.853.756 4.283a2.418 2.418 0 00.986 4.626l.042-.002c.5 6.372 7.74 11.751 12.32 11.751 4.702 0 11.82-5.378 12.32-11.75h.042a2.418 2.418 0 00.986-4.625c.489-1.43.757-2.688.757-4.284" stroke="#fff" stroke-width="2" stroke-linecap="round" stroke-linejoin="round"/><path d="M18.877 39.987l-.347 4.022s-1.319-1.823-3.328-.939m23.06-3.153l.353 4.092s1.319-1.823 3.328-.939" stroke="#fff" stroke-width="2" stroke-miterlimit="10" stroke-linecap="round" stroke-linejoin="round"/><path d="M23.523 21.495c-5.364 1.5-8.668 5.79-9.751 11.13a2.973 2.973 0 00-2.964 2.966c0 1.63 1.258 2.418 2.964 2.965 15.234 5.37 29.554 0 29.554 0 1.629-.492 2.963-1.334 2.963-2.965a2.973 2.973 0 00-2.963-2.965c-1.083-5.341-4.33-9.631-9.694-11.131" stroke="#fff" stroke-width="2" stroke-miterlimit="10" stroke-linecap="round" stroke-linejoin="round"/><path d="M30.203 32.163h-3.25a3.431 3.431 0 01-3.43-3.433v-7.297A3.431 3.431 0 0126.953 18h3.25a3.431 3.431 0 013.43 3.433v7.297a3.432 3.432 0 01-3.43 3.433z" stroke="#fff" stroke-width="2" stroke-miterlimit="10" stroke-linecap="round" stroke-linejoin="round"/><path d="M26.765 52.537h3.656" stroke="#fff" stroke-width="2" stroke-miterlimit="3.864" stroke-linecap="round" stroke-linejoin="round"/><path d="M31.203 40.996s-1.591.415-1.591 2.521c0 2.65 2.952 5.04 5.261 5.04 2.31 0 3.696-1.403 3.542-4.469-.154-3.066-2.618-3.092-2.618-3.092H21.244s-2.463.026-2.617 3.092c-.155 3.066 1.232 4.47 3.541 4.47 2.31 0 5.262-2.392 5.262-5.04 0-2.105-1.592-2.522-1.592-2.522" stroke="#fff" stroke-width="2" stroke-miterlimit="10" stroke-linecap="round" stroke-linejoin="round"/></svg>