<svg width="63" height="82" fill="none" xmlns="http://www.w3.org/2000/svg"><path d="M5.495 82a5 5 0 01-5-5V5a5 5 0 015-5H47.22a5 5 0 014.8 3.596l10.53 36a5.004 5.004 0 010 2.808l-10.53 36A5 5 0 0147.22 82H5.495z" fill="#005AFF"/><path d="M43.18 53.466a17.41 17.41 0 004.015-11.104c0-2.013-.36-3.937-.99-5.736C43.837 29.86 37.415 25 29.843 25c-7.585 0-14.015 4.876-16.377 11.66a17.304 17.304 0 00-.977 5.703c0 2.675.61 5.207 1.69 7.47a17.46 17.46 0 002.325 3.635" stroke="#fff" stroke-width="2" stroke-linecap="round" stroke-linejoin="round"/><path d="M36.503 55.967c0 .825-.668 1.493-1.492 1.493H24.674a1.492 1.492 0 01-1.492-1.493V53.03c0-.824.667-1.493 1.492-1.493H35.01c.824 0 1.492.669 1.492 1.493v2.938zm10.692-12.989h-4.521m-25.477 0h-4.709m6.394 5.602l-4.069 2.35M38.468 27.3l-2.235 3.872M29.842 25v4.505M21.216 27.3l2.28 3.952m-8.62 2.351l4.006 2.314m22.06 12.743l3.982 2.285M32.446 44.09a2.832 2.832 0 11-5.21-2.224 2.831 2.831 0 115.21 2.224zm-.226-2.65l10.022-6.473" stroke="#fff" stroke-width="2" stroke-miterlimit="10" stroke-linecap="round" stroke-linejoin="round"/></svg>