<svg width="64" height="82" fill="none" xmlns="http://www.w3.org/2000/svg"><path d="M5.813 82a5 5 0 01-5-5V5a5 5 0 015-5H47.54a5 5 0 014.799 3.596l10.53 36c.27.917.27 1.891 0 2.808l-10.53 36a5 5 0 01-4.8 3.596H5.814z" fill="#005AFF"/><path d="M44.919 20.506a1 1 0 00-1.36.311l-1.745 2.7a1 1 0 00-.16.544v3.905a1 1 0 01-.102.438l-5.63 11.538a1 1 0 01-.298.362l-7.609 5.709a1 1 0 00-.303 1.23l.649 1.36a1 1 0 01-.141 1.078l-2.238 2.634a1 1 0 01-.468.308l-3.522 1.085a1 1 0 00-.581.473l-2.37 4.304a1 1 0 01-.662.494L11.1 60.575a1 1 0 00-.667 1.45l.355.661a1 1 0 00.73.516l4.92.755a1 1 0 00.539-.066l6.098-2.56a1 1 0 00.45-.376l1.608-2.468a1 1 0 00.153-.41l.263-1.91a1 1 0 01.99-.863h1.458a1 1 0 00.598-.198l4.784-3.56c.043-.033.084-.069.121-.107l4.863-5.026a.918.918 0 01.208-.164l1.732-1.03a1 1 0 00.375-1.322l-.152-.292a1 1 0 01.383-1.326l1.145-.667a1 1 0 00.41-.459l1.525-3.437a1 1 0 00.084-.46l-.244-4.498a1 1 0 01.05-.375l1.445-4.272c.027-.081.044-.166.05-.251l.265-3.825a1 1 0 01.11-.392l.608-1.17a1 1 0 00-.367-1.315l-1.072-.652z" stroke="#fff" stroke-width="2" stroke-miterlimit="10" stroke-linecap="round" stroke-linejoin="round"/></svg>