<svg width="63" height="82" fill="none" xmlns="http://www.w3.org/2000/svg"><path d="M5.495 82a5 5 0 01-5-5V5a5 5 0 015-5H47.22a5 5 0 014.8 3.596l10.53 36a5.004 5.004 0 010 2.808l-10.53 36A5 5 0 0147.22 82H5.495z" fill="#005AFF"/><path d="M20.307 35.966s.79-4.474 2.762-4.545c1.973-.07 4.425 2.345 5.277.995.853-1.35 2.399-1.918 5.544-2.273 3.145-.355 1.813-2.77 3.785-1.988 1.972.782 5.65 6.534 5.81 7.813M41.072 53.02c0 1.719 1.544 3.11 3.449 3.11 1.904 0 3.449-1.392 3.449-3.11 0-1.716-1.544-3.109-3.45-3.109-1.906 0-3.449 1.393-3.449 3.11z" stroke="#fff" stroke-width="2" stroke-miterlimit="10" stroke-linecap="round" stroke-linejoin="round"/><path d="M10.49 35.966h3.863l6.98 20.165h2.357l3.355-6.78" stroke="#fff" stroke-width="2" stroke-linecap="round" stroke-linejoin="round"/><path d="M17.509 45.085s20.887 14.662 29.255-6.635H15.213" stroke="#fff" stroke-width="2" stroke-miterlimit="10" stroke-linecap="round" stroke-linejoin="round"/></svg>