<svg width="64" height="82" fill="none" xmlns="http://www.w3.org/2000/svg"><path d="M5.813 82a5 5 0 01-5-5V5a5 5 0 015-5H47.54a5 5 0 014.799 3.596l10.53 36c.27.917.27 1.891 0 2.808l-10.53 36a5 5 0 01-4.8 3.596H5.814z" fill="#005AFF"/><path d="M43.591 33.44L28.08 24.48l-15.511 8.96v17.922l15.511 8.96 15.513-8.96V33.44z" stroke="#fff" stroke-width="2" stroke-miterlimit="10" stroke-linecap="round" stroke-linejoin="round"/><path d="M38.66 24.065H17.498L6.917 42.4l10.581 18.337H38.66L49.241 42.4l-10.58-18.336z" stroke="#fff" stroke-width="2" stroke-miterlimit="10" stroke-linecap="round" stroke-linejoin="round"/><path d="M17.258 34.86l6.997 16 6.996-16m3.997 0v16" stroke="#fff" stroke-width="2" stroke-miterlimit="10" stroke-linecap="round" stroke-linejoin="round"/></svg>