<svg width="63" height="82" fill="none" xmlns="http://www.w3.org/2000/svg"><path d="M5.495 82a5 5 0 01-5-5V5a5 5 0 015-5H47.22a5 5 0 014.8 3.596l10.53 36a5.004 5.004 0 010 2.808l-10.53 36A5 5 0 0147.22 82H5.495z" fill="#005AFF"/><path d="M29.73 57.333V26m5.042 26.18l-5.043 5.153-5.042-5.154M13.488 26H45.97M13.488 57.333h4.916m-4.916-15.667h4.916m-4.916-7.833h3m-3 15.396h3m29.482 8.104h-4.915m4.915-15.667h-4.915m4.916-7.833h-3.002m3.002 15.396h-3.002" stroke="#fff" stroke-width="2" stroke-miterlimit="10" stroke-linecap="round" stroke-linejoin="round"/></svg>