<svg width="40" height="26" fill="none" xmlns="http://www.w3.org/2000/svg"><path d="M5.222 6.63h7.037m-9.148 8.444h4.222M1 10.852h8.444M6.63 3.111v-1C6.63 1.501 7.122 1 7.725 1h17.514c.602 0 1.094.5 1.094 1.111v18.185c0 .61-.492 1.111-1.095 1.111h-7.35m-7.036.001H7.725a1.107 1.107 0 01-1.095-1.112v-1.703m22.407 2.814H27.39a1.06 1.06 0 01-1.057-1.055v-7.39M39 12.963v7.389a1.06 1.06 0 01-1.056 1.055h-1.759" stroke="#37455C" stroke-width="2" stroke-miterlimit="10" stroke-linecap="round" stroke-linejoin="round"/><path d="M26.333 3.814h9.5L39 12.963M14.37 24.926a3.519 3.519 0 100-7.037 3.519 3.519 0 000 7.037zm18.297 0a3.519 3.519 0 100-7.037 3.519 3.519 0 000 7.037z" stroke="#37455C" stroke-width="2" stroke-miterlimit="10" stroke-linecap="round" stroke-linejoin="round"/><path d="M39 12.963h-6.333V3.814" stroke="#37455C" stroke-width="2" stroke-miterlimit="10" stroke-linecap="round" stroke-linejoin="round"/></svg>