<svg width="117" height="29" fill="none" xmlns="http://www.w3.org/2000/svg"><path d="M7.5 14.441c0-1.411-.176-2.382-.53-3-.352-.617-.97-.882-1.94-.882-.354 0-.706 0-1.148.088-.44.089-.706.089-.882.089v10.676H0V8.618a11.763 11.763 0 012.294-.441 16.5 16.5 0 013-.265c.882 0 1.677.088 2.206.353.618.265 1.059.53 1.412.97.176-.176.44-.264.706-.44.264-.177.617-.265.97-.442.353-.088.706-.264 1.147-.353.353-.088.794-.088 1.236-.088 1.058 0 1.852.177 2.558.441.706.265 1.148.706 1.589 1.236.353.529.617 1.147.794 1.94.176.707.176 1.589.176 2.471v7.412H15v-6.97c0-1.412-.177-2.383-.53-3-.352-.618-.97-.883-1.94-.883-.53 0-.971.088-1.412.265-.441.176-.795.353-.97.441.175.441.264.882.264 1.324.176.44.176.97.176 1.5v7.323H7.5v-6.97zm11.382.442c0-1.147.177-2.206.53-3.088.353-.883.794-1.588 1.411-2.206.53-.618 1.236-1.059 1.942-1.324.706-.264 1.5-.44 2.294-.44 1.853 0 3.264.529 4.235 1.676 1.059 1.147 1.5 2.823 1.5 5.03v1.058h-8.735c.088 1.059.44 1.853 1.147 2.47.706.618 1.588.883 2.912.883.705 0 1.411-.088 2.029-.177.618-.176 1.059-.264 1.412-.44l.44 2.47a6.082 6.082 0 01-.705.264c-.265.089-.618.177-.97.265a5.204 5.204 0 01-1.236.177c-.441.088-.882.088-1.323.088-1.147 0-2.206-.176-3-.53-.883-.352-1.589-.794-2.118-1.411-.53-.618-.97-1.324-1.235-2.206-.441-.706-.53-1.588-.53-2.559zm8.824-1.412c0-.44-.088-.794-.177-1.235a2.103 2.103 0 00-.53-.97c-.264-.265-.528-.53-.793-.618a2.443 2.443 0 00-1.147-.265c-.441 0-.883.088-1.236.265-.352.176-.617.44-.882.706a2.103 2.103 0 00-.53.97 2.442 2.442 0 00-.264 1.147h5.559zM42.882 20c0 2.118-.53 3.618-1.588 4.589-1.059.97-2.735 1.5-4.941 1.5-.794 0-1.588-.089-2.382-.177a37.09 37.09 0 01-2.118-.53l.53-2.558c.529.176 1.146.353 1.764.53.706.176 1.412.176 2.118.176 1.235 0 2.117-.265 2.647-.794.53-.53.794-1.236.794-2.206V20c-.265.177-.706.265-1.235.442a5.136 5.136 0 01-1.677.264c-.882 0-1.588-.176-2.294-.44a5.099 5.099 0 01-1.765-1.148c-.53-.53-.882-1.147-1.147-1.941a8.46 8.46 0 01-.44-2.735c0-.971.175-1.853.44-2.648.265-.794.706-1.5 1.324-2.029.53-.53 1.235-1.059 2.03-1.323.793-.353 1.764-.442 2.734-.442 1.148-.088 2.03 0 2.912.089.883.176 1.677.353 2.294.44V20zm-8.47-5.558c0 1.323.264 2.206.882 2.823.53.618 1.324.883 2.206.883.53 0 .97-.089 1.412-.177.44-.177.794-.265 1.059-.441v-6.883c-.177-.088-.53-.088-.794-.176-.353 0-.706-.088-1.236-.088-1.147 0-1.941.353-2.559 1.059-.706.794-.97 1.764-.97 3zm14.47-6.618c.97 0 1.853.088 2.56.353a4.555 4.555 0 011.676 1.059c.44.441.706.97.882 1.676.176.618.265 1.324.265 2.118v8.03c-.441.088-1.147.264-2.118.353-.97.176-2.03.176-3.265.176-.794 0-1.5-.088-2.206-.265-.617-.176-1.235-.353-1.676-.706a3.906 3.906 0 01-1.059-1.323c-.265-.53-.353-1.236-.353-2.03 0-.794.177-1.411.441-1.94.265-.53.706-.971 1.236-1.236.53-.353 1.059-.53 1.764-.706.706-.176 1.324-.176 2.118-.176.353 0 .706 0 1.059.088.353 0 .794.088 1.147.176v-.44c0-.354 0-.707-.088-.972-.089-.352-.265-.617-.441-.882-.177-.264-.53-.441-.795-.53-.353-.176-.794-.176-1.323-.176-.706 0-1.324.088-1.941.177-.618.088-1.06.176-1.412.353L45 8.53c.353-.177.97-.266 1.676-.442.618-.177 1.412-.265 2.206-.265zm.265 11.383c.97 0 1.677-.089 2.118-.177v-3.353c-.177-.088-.441-.088-.706-.176-.353-.088-.706-.088-1.059-.088s-.706 0-1.059.088-.617.176-.97.264c-.265.177-.53.353-.706.53a1.49 1.49 0 00-.265.882c0 .706.265 1.236.706 1.5.53.441 1.147.53 1.941.53zm14.383-4.766c0-1.411-.177-2.382-.53-3-.353-.617-.97-.882-1.941-.882-.353 0-.706 0-1.147.088-.442.089-.706.089-.883.089v10.676h-3.088V8.618a11.762 11.762 0 012.294-.441 16.5 16.5 0 013-.265c.882 0 1.677.088 2.206.353.618.265 1.059.53 1.412.97.176-.176.44-.264.706-.44.264-.177.617-.265.97-.442.353-.088.706-.264 1.147-.353.353-.088.794-.088 1.236-.088 1.058 0 1.852.177 2.558.441.706.265 1.148.706 1.589 1.236.353.529.617 1.147.794 1.94.176.707.264 1.5.264 2.383v7.412H71.03v-6.97c0-1.412-.176-2.383-.53-3-.352-.618-.97-.883-1.94-.883-.53 0-.971.088-1.412.265-.441.176-.794.353-.97.44.087.442.264.883.264 1.324.088.441.088.97.088 1.5v7.324h-3V14.44zm15.44-9.617c0 .53-.176 1.059-.529 1.324-.353.352-.794.529-1.323.529-.53 0-.971-.177-1.324-.53-.353-.352-.53-.794-.53-1.323 0-.618.177-1.059.53-1.412.353-.353.794-.53 1.324-.53.529 0 .97.177 1.323.53.353.353.53.794.53 1.412zm-.264 3.353h-3.088v13.235h3.088V8.177zm8.824 2.647c-.266-.088-.354-.088-.795-.177a7.917 7.917 0 00-1.588-.176c-.353 0-.706 0-1.059.088s-.618.088-.794.177v10.588h-3V8.794c.618-.176 1.323-.44 2.206-.617a14.872 14.872 0 012.912-.265h.705c.265 0 .53.088.794.088.265 0 .53.089.795.177.264.088.44.088.617.176l-.794 2.47zm11.911-4.588a.79.79 0 00-.794-.795.79.79 0 00-.794.795.79.79 0 00.794.794.79.79 0 00.794-.794z" fill="#fff"/><path d="M102.794.677c-7.764 0-14.117 6.353-14.117 14.117 0 4.677 2.294 8.912 5.911 11.471l3.794-3.706V8.265c0-.441-.176-.618-.44-.794a1.408 1.408 0 01-.707-1.235c0-.795.706-1.5 1.5-1.5s1.5.705 1.5 1.5c0 .529-.264.97-.706 1.235-.264.176-.44.353-.44.706v14.559l-3.883 3.794c2.206 1.412 4.853 2.294 7.676 2.294 7.765 0 14.118-6.353 14.118-14.118-.088-7.676-6.441-14.03-14.206-14.03zm-5.117 8.912v11.647h-.706V9.589h.706zm2.647 11.647h-.618V9.589h.706v11.647h-.088zm8.558 0a5.685 5.685 0 01-1.764.264c-.794 0-1.412-.088-1.941-.264a2.631 2.631 0 01-1.236-.883c-.353-.44-.529-.882-.617-1.5-.089-.617-.177-1.235-.177-2.03v-10.5l2.118-.352v3.618h4.412v1.764h-4.412v5.383c0 .617.088 1.058.176 1.411s.265.706.441.883c.177.176.442.353.706.44.265.09.618.177.971.177a6.35 6.35 0 001.5-.176c.353-.177.618-.265.794-.265l.441 1.765c-.529-.088-.882.088-1.412.265z" fill="#fff"/></svg>