<svg width="25" height="35" fill="none" xmlns="http://www.w3.org/2000/svg"><path d="M24 21.388c0 1.428-5.148 2.586-11.5 2.586S1 22.817 1 21.388M24 2.19C24 .761 1 5.66 1 7.088v14.3M24 2.19v19.198M1 7.088c0 3.12 23-.41 23-4.899M21.792 31.73c0 1.155-4.16 2.09-9.292 2.09s-9.292-.935-9.292-2.09m0-8.819v8.819m18.584-8.823v8.823M6.476 30.3v-2.346m3.286-1.3v-2.347m5.476 2.347v-2.347m3.286 5.993v-2.346M12.5 30.3v-2.346" stroke="#005AFF" stroke-width="2" stroke-miterlimit="10" stroke-linecap="round" stroke-linejoin="round"/></svg>