<svg width="36" height="27" fill="none" xmlns="http://www.w3.org/2000/svg"><path d="M11.453 9.395h-7.16V6.67c0-.643.521-1.165 1.164-1.165h4.83c.644 0 1.165.522 1.165 1.165v2.724h.001zM8.158 26h-.572A2.391 2.391 0 015.2 23.76L4.292 9.396h7.161l-.908 14.364A2.392 2.392 0 018.158 26zM21.237 9.395h-7.16V6.67c0-.643.521-1.165 1.164-1.165h4.83c.644 0 1.165.522 1.165 1.165v2.724h.001zM17.942 26h-.571a2.391 2.391 0 01-2.387-2.24l-.908-14.364h7.161l-.908 14.364A2.392 2.392 0 0117.942 26zM31.021 9.395h-7.16V6.67c0-.643.521-1.165 1.164-1.165h4.83c.644 0 1.165.522 1.165 1.165v2.724h.001zM27.727 26h-.572a2.391 2.391 0 01-2.387-2.24L23.86 9.396h7.161l-.908 14.364A2.392 2.392 0 0127.727 26z" stroke="#005AFF" stroke-width="2" stroke-miterlimit="10" stroke-linecap="round" stroke-linejoin="round"/><path d="M33.148 9.395H2.165c-.704 0-1.247-.62-1.155-1.318l.802-6.065A1.165 1.165 0 012.967 1h29.378c.585 0 1.079.433 1.155 1.012l.803 6.065a1.165 1.165 0 01-1.155 1.318zM7.872 20v2.593m9.784-2.612v2.593m9.784-2.593v2.593" stroke="#005AFF" stroke-width="2" stroke-miterlimit="10" stroke-linecap="round" stroke-linejoin="round"/></svg>