<svg width="193" height="76" fill="none" xmlns="http://www.w3.org/2000/svg"><path d="M24.352 30.788a1 1 0 001 1h11.639a1 1 0 011 1v3.616a.959.959 0 01-.459.827c-2.674 1.6-5.721 2.151-9.378 2.151-9.621 0-15.665-5.146-15.665-14.3.01-9.146 6.044-14.302 15.665-14.302 3.634 0 6.665.536 9.326 2.119.319.189.714.208 1.038.03l9.261-5.08c.593-.325.699-1.132.18-1.564C43.427 2.507 36.478 0 27.537 0 10.798 0 .018 9.687 0 25.072v.038c.01 15.384 10.798 25.07 27.538 25.07 9.41 0 16.618-2.782 21.125-6.9a.972.972 0 00.313-.72V22.69a1 1 0 00-1-1H25.353a1 1 0 00-1 1v8.098zM87.147 41.87a1 1 0 00-.913-.591H68.26a1 1 0 00-.913.591l-2.993 6.692a1 1 0 01-.913.591H52.582a1 1 0 01-.92-1.392L71.415 1.467a1 1 0 01.92-.608h9.833a1 1 0 01.92.608L102.84 47.76a1 1 0 01-.92 1.392H91.052a1 1 0 01-.913-.591l-2.992-6.691zM71.728 30.355a1 1 0 00.934 1.358h9.241a1 1 0 00.935-1.354l-4.592-12.127c-.325-.86-1.54-.862-1.869-.004l-4.649 12.127zm63.925 18.8l-.001-.004-8.496-12.406a.638.638 0 00-.526-.278h-6.053a1 1 0 00-1 1v10.686a1 1 0 01-1 1h-9.873a1 1 0 01-1-1V1.923a1 1 0 011-1h18.944c13.367 0 20.55 6.306 20.55 17.777 0 7.179-2.856 12.09-8.002 14.919-.553.303-.739 1.024-.367 1.533l9.1 12.419a1 1 0 01-.807 1.59H135.66a.007.007 0 01-.007-.006zm-16.076-22.599h6.922c6.576 0 9.229-3.26 9.229-7.193 0-5.361-2.513-8.145-8.884-8.145h-6.258a1 1 0 00-1 1v14.329a.01.01 0 01-.009.01zM191.513.85h-39.447a1 1 0 00-1 1v9.126a1 1 0 001 1h39.447a1 1 0 001-1V1.851a1 1 0 00-1-1z" fill="#fff"/><path d="M178.494 45.158a1 1 0 001.548-.837v-5.174c0-.337-.17-.651-.451-.836l-8.728-5.722a1 1 0 01-.452-.837v-4.605a1 1 0 011.549-.836l6.534 4.284a1 1 0 001.548-.836V11.593a1 1 0 00-1-1h-14.375a1 1 0 00-1 1V34.89a1 1 0 00.452.836l14.375 9.43zm-13.278-1.06a1 1 0 00-1.549.836v5.399c0 .337.17.65.451.836l8.831 5.797a1 1 0 01.452.836v4.596a1 1 0 01-1.549.836l-6.637-4.35a1 1 0 00-1.548.836v8.214a1 1 0 00.318.731l7.183 6.7a1 1 0 001.364 0l7.192-6.7a1 1 0 00.318-.731v-13.57c0-.337-.17-.65-.451-.836l-14.375-9.43z" fill="#fff"/></svg>