<svg width="143" height="57" fill="none" xmlns="http://www.w3.org/2000/svg"><path d="M18.064 22.58a1 1 0 001 1h8.117a1 1 0 011 1v2.284a.945.945 0 01-.46.824c-1.955 1.133-4.179 1.525-6.837 1.525-7.137 0-11.62-3.818-11.62-10.608.007-6.784 4.483-10.609 11.62-10.609 2.634 0 4.842.38 6.784 1.493.321.185.716.204 1.04.026l6.425-3.523c.592-.325.697-1.132.168-1.553C31.937 1.762 26.882 0 20.427 0 8.01 0 .014 7.185 0 18.598v.027c.007 11.413 8.01 18.598 20.427 18.598 6.923 0 12.24-2.03 15.588-5.044a.964.964 0 00.314-.72V17.09a1 1 0 00-1-1H19.064a1 1 0 00-1 1v5.49zm46.648 8.632a1 1 0 00-.913-.592H50.801a1 1 0 00-.913.591l-2.083 4.658a1 1 0 01-.913.592h-7.497a1 1 0 01-.92-1.392L52.907 1.245a1 1 0 01.92-.607h6.953a1 1 0 01.92.607l14.43 33.823a1 1 0 01-.92 1.393h-7.503a1 1 0 01-.913-.592l-2.083-4.657zm-11.371-9.046a1 1 0 00.934 1.358h6.105a1 1 0 00.935-1.354l-3.034-8.012c-.325-.86-1.54-.862-1.869-.004l-3.071 8.012zm47.283 14.296v-.003l-6.303-9.202a.473.473 0 00-.39-.206H89.7a1 1 0 00-1 1v7.41a1 1 0 01-1 1h-6.807a1 1 0 01-1-1V1.686a1 1 0 011-1h13.793c9.916 0 15.244 4.677 15.244 13.186 0 5.196-2.017 8.791-5.662 10.911-.545.317-.732 1.038-.36 1.546l6.263 8.548a1 1 0 01-.807 1.59h-8.734c-.003 0-.006-.002-.006-.005zM88.7 19.7h5.134c4.878 0 6.846-2.418 6.846-5.335 0-3.977-1.864-6.042-6.59-6.042h-4.384a1 1 0 00-1 1v10.37a.007.007 0 01-.007.007zM141.802.63h-28.745a1 1 0 00-1 1v6.253a1 1 0 001 1h28.745a1 1 0 001-1V1.631a1 1 0 00-1-1z" fill="#37455C"/><path d="M132.003 33.235a1 1 0 001.548-.837v-3.22a.999.999 0 00-.451-.836l-6.241-4.092a1 1 0 01-.452-.836v-2.799a1 1 0 011.549-.836l4.047 2.654a1 1 0 001.548-.836V8.857a1 1 0 00-1-1h-10.146a1 1 0 00-1 1v16.885c0 .337.169.651.451.836l10.147 6.657zm-9.05-.262a1 1 0 00-1.548.836v3.387c0 .337.169.651.451.836l6.317 4.147a1 1 0 01.452.836v2.792a1 1 0 01-1.548.837l-4.124-2.703a1 1 0 00-1.548.836v5.502a1 1 0 00.318.732l5.07 4.728a1 1 0 001.364 0l5.076-4.728a1 1 0 00.318-.732v-9.814a.999.999 0 00-.451-.836l-10.147-6.656z" fill="#37455C"/></svg>